<svg xmlns="http://www.w3.org/2000/svg" xmlns:xlink="http://www.w3.org/1999/xlink" version="1.1" id="Layer_2" x="0px" y="0px" viewBox="0 0 1080 1080" style="enable-background:new 0 0 1080 1080;" xml:space="preserve">
<style xmlns="http://www.w3.org/2000/svg" type="text/css">
	.st0{fill:none;stroke:#C1C1C1;stroke-miterlimit:10;stroke-dasharray:12.2783,12.2783;}
	.st1{fill:#F7F7F7;}
	.st2{fill:#0b4870;}
	.st3{fill:#FFFFFF;}
	.st4{fill:#FCD2B1;}
	.st5{fill:#0A3951;}
	.st6{fill:#083047;}
	.st7{fill:#F2F2F2;}
	.st8{fill:#0E538C;}
	.st9{fill:#FFE3CA;}
	.st10{fill:#2A94F4;}
	.st11{fill:none;stroke:#2A94F4;stroke-miterlimit:10;}
	.st12{fill:#CCE9FF;}
	.st13{fill:none;stroke:#CCE9FF;stroke-miterlimit:10;}
	.st14{fill:#B6E7FF;}
	.st15{fill:#85DDFF;}
	.st16{fill:#41AAF7;}
</style>
<g xmlns="http://www.w3.org/2000/svg">
	<circle class="st0" cx="976.07" cy="520.75" r="70.35"/>
</g>
<g xmlns="http://www.w3.org/2000/svg">
	<path class="st1" d="M810.51,256.29c28.83,9.77,57.49,21.69,77.66,40.41c20.17,18.72,30.27,45.63,18.17,68.15   c-16.16,30.08-67.36,47.57-67.6,80.16c-0.17,23.34,27.61,41.15,55.66,49.64c28.04,8.48,59.09,11.54,84.6,23.94   c38.49,18.71,56.54,54.93,63.93,89.68c7.67,36.08,4.56,77.16-28.37,103.34c-40.93,32.54-108.63,28.87-166.58,21.93   c-77.33-9.26-154.32-20.14-231.29-31.01c-168.74-23.84-337.48-47.69-506.22-71.53c-18.09-2.56-36.92-5.35-51.62-13.92   c-29.19-17.01-31.67-52.13-14.7-77.2c16.97-25.07,48.36-42.1,79.54-56.85c31.18-14.74,64.1-28.68,87.46-50.45   c23.35-21.77,34.97-53.99,17.3-78.77c-14.97-20.99-47.14-32.21-61.16-53.59c-18.48-28.17,2.78-64.15,36.31-82.13   S658.19,204.65,810.51,256.29z"/>
</g>
<g xmlns="http://www.w3.org/2000/svg">
	<g>
		<path class="st2" d="M876.9,569.68l-12.75,2.54l-1.83-9.17c-1.24-6.24-7.02-10.36-12.87-9.2l-62.85,12.54    c-5.85,1.17-9.61,7.19-8.36,13.43l1.83,9.17l-12.75,2.54c-1.45,0.29-2.38,1.79-2.08,3.33l13.35,66.95    c0.31,1.54,1.75,2.57,3.2,2.28l109.6-21.86c1.45-0.29,2.38-1.79,2.08-3.33l-13.35-66.95C879.79,570.42,878.35,569.39,876.9,569.68    z M861.11,572.83l-78.02,15.56l-1.83-9.17c-0.89-4.46,1.79-8.76,5.97-9.59l62.85-12.54c4.18-0.83,8.31,2.11,9.2,6.57    L861.11,572.83z"/>
		<g>
			<polygon class="st3" points="835.12,613.71 822.03,616.32 766.52,598.93 766.89,598.4 822.17,615.72 834.76,613.21 879.17,576      879.71,576.35    "/>
		</g>
	</g>
	<path class="st4" d="M535.07,464.76c0,0-12.05-3.97-14.42-2.58s-14.61,17.85-14.61,17.85l16.39,7.82l18.56-12.04L535.07,464.76z"/>
	<path class="st4" d="M824.31,544.99c0,0,9.82,19.9,7.76,23.45C830,572,807.77,576,807.77,576l-5.95-19.96l10.61-11.06H824.31z"/>
	<polygon class="st5" points="653.83,864.43 602.02,881.24 665.09,881.24 665.09,864.43  "/>
	<polygon class="st5" points="782.24,864.43 734.92,881.24 797.46,881.24 794.25,864.43  "/>
	<path class="st6" d="M680.22,519.97l-32.7,352.12h21.09c0,0,50.14-146.16,33.41-165.5c5.38-23.95,39.63-118.83,31.72-128.96   c-7.91-10.13-22.41-63.02-22.41-63.02L680.22,519.97z"/>
	<path class="st5" d="M688.02,529.46l17,23.41l70.1,319.22h22.27c0,0,1.85-160.14-14.11-180.36c-6.38-36.18-9.4-159.25-14.11-172.74   c-21.28-1.06-77.15-7.62-77.15-7.62L688.02,529.46z"/>
	<path class="st3" d="M806.87,357c-10.86-17.06-42.33-15.49-66.37-17.75c-6.96-0.65-12.77-3.58-17.71-4.25l-32.73,9.86   c-1.88,0.4-28.18,2.33-31.19,4.14c-0.36,0.42-28.85,100.66-124,114c1,7,0,17,0,17s97.99,2.84,128.79-54.56   c6.76,62.87,16.56,94.53,16.56,94.53l90,3.96c0,0,4.64-95.92,14.64-117.92c52,33,23,142,23,142s4,2,17,0   C854.87,472,820.87,379,806.87,357z"/>
	<polygon class="st7" points="702.02,354.25 712.5,369.21 733.74,336.88 726.02,332  "/>
	<polygon class="st7" points="702.02,354.25 698.76,369.21 688.02,346.23 692.02,339.25  "/>
	<path class="st2" d="M699.83,365.39l2.19,6.77l-10.61,117.05c0,0,13.55,53.94,14.46,50.64c0.91-3.3,14.19-46.27,14.19-46.27   l-12.09-121.25l1.06-7.01l-7-11.08L699.83,365.39z"/>
	<g>
		<path class="st8" d="M726.06,246.32c11,9,16,30,11,41s-18,17-23,23c-10-12-24-20-24-20l7-30l14-7L726.06,246.32z"/>
		<polygon class="st4" points="692.06,315.9 692.06,341.9 702.06,356.9 726.06,334.65 716.56,288.6   "/>
		<path class="st9" d="M661.35,254.99c2.8,31.11-12.08,61.24,4.67,70.72c3.74,4.71,41.38,9.9,46.05-4.24s16.57-54.22,7.22-66.48    C709.95,242.73,661.35,254.99,661.35,254.99z"/>
		<path class="st8" d="M705.06,258.32c-2,8,0,23,8,25c0,3.82-0.41,10.49-0.7,14.82c-0.16,2.39,1.66,4.45,4.05,4.58    c1.88,0.1,3.65,0.08,3.65-0.4c0-1,6-44,6-44H705.06z"/>
		
			<ellipse transform="matrix(0.2591 -0.9659 0.9659 0.2591 254.6693 911.2905)" class="st9" cx="721.32" cy="289.65" rx="11" ry="6.67"/>
		<polygon class="st8" points="714.06,282.32 713.06,300.32 718.06,301.32 720.06,276.32   "/>
		<g>
			<path class="st8" d="M726.42,260.22c-16.58,4.01-33.53,6.45-50.56,7.3c-8.79,0.44-18.56,0.1-24.98-5.92     c-5.29-4.96-7.02-13.08-5.04-20.06s7.28-12.74,13.67-16.17c6.39-3.43,13.77-4.69,21.02-4.59c-2.75-0.47-5.14,2.71-4.6,5.45     c0.54,2.74,3.13,4.69,5.84,5.38s5.55,0.37,8.34,0.15c6.99-0.54,14.09-0.41,20.88,1.32c6.79,1.72,13.55,5.4,16.77,11.63     s1.49,15.22-4.86,18.18"/>
		</g>
	</g>
</g>
<path xmlns="http://www.w3.org/2000/svg" class="st7" d="M68.12,881.24h943.75c7.16,0,12.96,5.8,12.96,12.96v68.83c0,7.16-5.8,12.96-12.96,12.96H68.12  c-7.16,0-12.96-5.8-12.96-12.96V894.2C55.16,887.04,60.96,881.24,68.12,881.24z"/>
<g xmlns="http://www.w3.org/2000/svg">
	<path class="st4" d="M505.83,464.76c0,0,12.06-3.97,14.42-2.58s14.61,17.85,14.61,17.85l-16.39,7.82l-18.56-12.04L505.83,464.76z"/>
	<path class="st4" d="M216.59,544.99c0,0-9.82,29.3-7.76,34.54c2.07,5.24,24.3,11.13,24.3,11.13l-2.07-22.83l5.69,9.08l2.59-9.08   l-10.86-22.83H216.59z"/>
	<polygon class="st5" points="387.08,864.43 438.89,881.24 375.81,881.24 375.81,864.43  "/>
	<polygon class="st5" points="258.67,864.43 305.99,881.24 243.45,881.24 246.66,864.43  "/>
	<path class="st6" d="M358.32,524.2l35.06,347.89h-21.09c0,0-50.14-146.16-33.41-165.5c-5.38-23.95-39.63-118.83-31.72-128.96   c7.91-10.13,22.41-63.02,22.41-63.02L358.32,524.2z"/>
	<path class="st5" d="M352.89,529.46l-17,23.41l-70.1,319.22h-22.27c0,0-1.85-160.14,14.11-180.36   c6.38-36.18,10.36-162.27,22.07-170.78c21.28-1.06,69.19-9.58,69.19-9.58L352.89,529.46z"/>
	<path class="st8" d="M360.04,567l-22-48l-44,48l-20-36c0,0-8-103-18-125c-52,33-23,142-23,142s-4,2-17,0c-30-76,4-169,18-191   c10.86-17.06,42.76-20.89,66.8-23.15c6.96-0.65,16.76,4.93,21.7,4.26c0,0,22.35-0.75,41.35,4.53l0.02,0.01   c8.2,2.28,15.12,4.54,18.13,6.35C388.04,356,360.04,567,360.04,567z"/>
	<path class="st8" d="M382.04,349c0,0,17,99,124,114c-1,7,0,17,0,17s-103,3-131-59C366.04,362,382.04,349,382.04,349z"/>
	<path class="st3" d="M358.32,341.14l-18.98,118.99l-38.5-126.28c6.96-0.65,13.26-1.18,18.2-1.85L358.32,341.14z"/>
	<g>
		<path class="st8" d="M314.88,243.67c-11,9-16,30-11,41s18,17,23,23c10-12,24-20,24-20l-7-30l-14-7L314.88,243.67z"/>
		<polygon class="st4" points="348.88,313.25 348.88,339.25 338.88,354.25 314.88,332 324.38,285.95   "/>
		<path class="st9" d="M383.88,252.67c-3,33-1,70-5,75s-44,5-49-10s-18-52-8-65S383.88,252.67,383.88,252.67z"/>
		<path class="st8" d="M335.88,255.67c2,8,0,23-8,25c0,3.82,0.41,10.49,0.7,14.82c0.16,2.39-1.66,4.45-4.05,4.58    c-1.88,0.1-3.65,0.08-3.65-0.4c0-1-6-44-6-44H335.88z"/>
		<ellipse transform="matrix(0.9659 -0.2591 0.2591 0.9659 -63.446 92.6121)" class="st9" cx="319.62" cy="287" rx="6.67" ry="11"/>
		<polygon class="st8" points="326.88,279.67 327.88,297.67 322.88,298.67 320.88,273.67   "/>
		<g>
			<path class="st8" d="M331.23,257.12c5.74,4.57,13.36,6.71,20.63,5.79c5.76-0.73,11.23-3.26,17.03-3.4     c4.44-0.11,8.78,1.2,13.2,1.62c5.1,0.48,10.46-0.29,14.77-3.06c4.31-2.77,7.37-7.75,7-12.86c-0.51-7.13-7.42-12.46-14.48-13.62     s-14.2,0.86-21.06,2.9c-6.85,2.03-13.97,4.12-21.04,3.09c-4.95-0.72-9.58-2.95-14.52-3.77c-5.35-0.9-10.98-0.08-15.85,2.3     c-3.68,1.8-6.98,4.53-9.01,8.1s-2.65,8-1.24,11.85c1.27,3.46,4.09,6.23,7.39,7.87s7.05,2.22,10.74,2.15L331.23,257.12z"/>
		</g>
	</g>
	<polygon class="st7" points="338.88,354.25 328.41,369.21 307.17,336.88 314.88,332  "/>
	<polygon class="st7" points="338.88,354.25 342.14,369.21 352.89,346.23 348.88,339.25  "/>
	<path class="st2" d="M341.07,364.31l-2.19,6.11l9.08,35.63c0,0-7.72,57.06-8.63,54.08s-17.22-56.5-17.22-56.5l10.83-33.06   l-1.06-6.32l7-10L341.07,364.31z"/>
</g>
<path xmlns="http://www.w3.org/2000/svg" class="st9" d="M507.8,484.79c1.93-2.7,7.73-9.93,7.73-9.93l14.68,9.93l-10.04,6.57L507.8,484.79z"/>
<path xmlns="http://www.w3.org/2000/svg" class="st9" d="M535.27,464.76c0,0-7.52-3.65-12.57-3.97s-11.7,6.87-11.7,6.87s0.21,1.29,2.9,1.29c2.68,0,8.05-2.58,8.05-2.58  l13.55,5.68L535.27,464.76z"/>
<g xmlns="http://www.w3.org/2000/svg">
	<path class="st10" d="M917.24,164.17H800.43c-23.13,0-42.05,18.91-42.05,42.02v0c0,16.15,9.24,30.23,22.69,37.26l-2.55,11.99   c0,0,18.87-7.23,21.91-7.23h116.81c23.13,0,42.05-18.91,42.05-42.02v0C959.29,183.08,940.37,164.17,917.24,164.17z"/>
	<path class="st11" d="M926.99,175.1H810.18c-23.13,0-42.05,18.91-42.05,42.02v0c0,16.15,9.24,30.23,22.69,37.26l-2.55,11.99   c0,0,18.87-7.23,21.91-7.23h116.81c23.13,0,42.05-18.91,42.05-42.02v0C969.04,194.01,950.12,175.1,926.99,175.1z"/>
</g>
<g xmlns="http://www.w3.org/2000/svg">
	<path class="st12" d="M283.79,194.34H156.08c-5.31,0-9.66,4.35-9.66,9.66v60.01c0,5.31,4.35,9.66,9.66,9.66h96.4L270.37,287   l-7.53-13.33h20.96c5.31,0,9.66-4.35,9.66-9.66V204C293.46,198.69,289.11,194.34,283.79,194.34z"/>
	<path class="st13" d="M280.3,200.56H152.58c-5.31,0-9.66,4.35-9.66,9.66v60.01c0,5.31,4.35,9.66,9.66,9.66h96.4l17.89,13.33   l-7.53-13.33h20.96c5.31,0,9.66-4.35,9.66-9.66v-60.01C289.96,204.91,285.61,200.56,280.3,200.56z"/>
</g>
<g xmlns="http://www.w3.org/2000/svg">
	<path class="st14" d="M125.31,893.62c21.68,0,30.83-17.31,34.43-35.68c4.07-20.72,1.08-42.77,1.08-42.77H89.8   c0,0-0.11,0.84-0.27,2.34C88.21,830.55,83.93,893.62,125.31,893.62z"/>
	<path class="st15" d="M89.8,815.17c0,1.55,15.9,2.81,35.52,2.81c19.61,0,35.52-1.26,35.52-2.81c0-1.55-15.9-2.81-35.52-2.81   C105.7,812.36,89.8,813.62,89.8,815.17z"/>
	<path class="st10" d="M29.14,618.26c0,0,37.46,56.99,59.93,91.77s28.36,42,31.03,53.24c2.68,11.24,5.08,52.7,5.08,52.7h1.66   c0,0-0.58-35.2-2.6-47.04c-1.96-11.45,0.14-15.56,1.75-27.6c1.61-12.04,3.75-31.3-8.43-44.68c-12.17-13.38-8.96-26.49-13.24-35.31   c-4.28-8.83-37.46-19.53-41.74-28.63C58.3,623.61,39.58,617.99,29.14,618.26z"/>
	<path class="st16" d="M29.14,618.26c0,0,11.77,13.38,19.8,17.93c8.03,4.55,11.77,0.53,17.92,11.5c6.15,10.97,6.39,15.79,12.02,21.4   c5.63,5.62,12.32,5.89,12.86,18.19c0.54,12.31-2.67,22.74-2.67,22.74S31.55,621.2,29.14,618.26z"/>
	<path class="st10" d="M122.22,815.97h-1.68c0,0-0.5-11.39-5.03-16.92c-2.92-3.57-15.32-7.62-27.57-12.48   c-6.75-2.67-13.45-5.59-18.51-8.81c-14.25-9.05-27.83-38.21-28.99-43.41c-0.41-1.81-0.59-2.91-0.58-3.66v-0.02   c0.03-1.4,0.72-1.61,1.92-3.02c0.58-0.68,2.31-0.45,4.43,0.2c6.14,1.87,11.33,6.08,14.54,11.64c2.97,5.14,7.72,11.57,13.54,13.13   c10.06,2.68,9.22,4.35,12.93,14.58c3.7,10.23,13.05,11.9,24.78,23.96C123.73,803.23,122.22,815.97,122.22,815.97z"/>
	<path class="st16" d="M87.94,786.57c-6.75-2.67-13.45-5.59-18.51-8.81c-14.25-9.05-27.83-38.21-28.99-43.41   c-0.41-1.81-0.59-2.91-0.58-3.66c0.04,0.34,0.7,4.96,8.13,8.03c7.7,3.18,9.21,3.18,10.22,8.04c1.01,4.86,1.85,10.06,5.87,11.06   c4.02,1.01,6.54-3.52,9.71,3.85c3.19,7.37,4.71,9.89,7.63,10.89c2.93,1.01,5.15-0.5,5.8,5.2   C87.61,781.24,87.83,784.54,87.94,786.57z"/>
	<path class="st10" d="M134.54,815.97h1.99c0,0,3.89-70.55,9.24-77.1c3.45-4.23,14.85-11.8,29.37-17.56   c7.99-3.17,15.94-6.62,21.93-10.43c16.88-10.72,32.96-45.26,34.34-51.42c0.49-2.14,0.7-3.44,0.69-4.34v-0.02   c-0.04-1.66-0.86-1.91-2.27-3.57c-0.68-0.81-2.74-0.53-5.25,0.24c-7.28,2.22-13.42,7.2-17.22,13.79   c-3.52,6.09-9.15,13.71-16.04,15.55c-11.91,3.18-10.92,5.16-15.32,17.27c-4.38,12.11-15.46,14.09-29.35,28.38   C132.75,741.05,134.54,815.97,134.54,815.97z"/>
	<path class="st16" d="M175.14,721.31c7.99-3.17,15.94-6.62,21.93-10.43c16.88-10.72,32.96-45.26,34.34-51.42   c0.49-2.14,0.7-3.44,0.69-4.34c-0.05,0.41-0.83,5.87-9.62,9.5c-9.12,3.76-10.91,3.76-12.1,9.53c-1.19,5.75-2.19,11.91-6.95,13.1   c-4.76,1.19-7.74-4.17-11.51,4.56c-3.78,8.73-5.57,11.71-9.04,12.9c-3.47,1.19-6.1-0.6-6.87,6.16   C175.53,715,175.27,718.91,175.14,721.31z"/>
	<g>
		<path class="st12" d="M125.31,893.62c21.68,0,30.83-17.31,34.43-35.68c-21.25-8.06-48.01-20.97-70.21-40.43    C88.21,830.55,83.93,893.62,125.31,893.62z"/>
	</g>
</g>
<g xmlns="http://www.w3.org/2000/svg">
	<path class="st14" d="M956.44,896.27c14.35,0,20.4-11.46,22.79-23.62c2.69-13.71,0.72-28.31,0.72-28.31h-47.01   c0,0-0.07,0.56-0.18,1.55C931.88,854.53,929.05,896.27,956.44,896.27z"/>
	<path class="st15" d="M932.93,844.35c0,1.03,10.52,1.86,23.51,1.86c12.98,0,23.51-0.83,23.51-1.86c0-1.03-10.52-1.86-23.51-1.86   C943.46,842.49,932.93,843.32,932.93,844.35z"/>
	<path class="st10" d="M879.35,688.23c0,0,29.68,45.15,47.48,72.71c17.81,27.56,22.47,33.28,24.59,42.18   c2.12,8.9,4.03,41.76,4.03,41.76h2.33c0,0,1.48-27.77-1.27-36.88c-2.76-9.11-1.7-12.72-0.42-22.26c1.27-9.54,2.97-24.8-6.68-35.4   c-9.64-10.6-7.1-20.98-10.49-27.98c-3.39-7-29.68-15.47-33.07-22.68C902.46,692.47,887.62,688.02,879.35,688.23z"/>
	<path class="st16" d="M885.84,688.23c0,0,9.33,10.6,15.69,14.2c6.36,3.6,9.33,0.42,14.2,9.11c4.88,8.69,5.06,12.51,9.53,16.96   c4.46,4.45,9.76,4.66,10.19,14.41c0.42,9.75-2.12,18.02-2.12,18.02S887.75,690.56,885.84,688.23z"/>
	<path class="st10" d="M965.32,844.35l1.7-0.51c0,0-2.95-11.68-0.04-18.65c1.87-4.5,13.19-12.36,24.12-20.99   c6.02-4.75,11.92-9.74,16.07-14.53c11.68-13.48,16.57-47.11,16.18-52.73c-0.13-1.96-0.28-3.12-0.52-3.88l-0.01-0.02   c-0.45-1.41-1.22-1.41-2.86-2.47c-0.79-0.52-2.48,0.25-4.42,1.55c-5.65,3.76-9.62,9.59-11.19,16.19   c-1.45,6.11-4.31,14.06-9.72,17.39c-9.36,5.77-8.01,7.2-8.67,18.68c-0.64,11.47-9.6,16-17.81,31.77   C959.93,831.91,965.32,844.35,965.32,844.35z"/>
	<path class="st16" d="M991.1,804.19c6.02-4.75,11.92-9.74,16.07-14.53c11.68-13.48,16.57-47.11,16.18-52.73   c-0.13-1.96-0.28-3.12-0.52-3.88c0.06,0.36,0.79,5.23-5.79,10.59c-6.83,5.55-8.36,6.01-7.9,11.24c0.46,5.22,1.18,10.74-2.59,12.98   c-3.77,2.24-7.68-1.58-8.66,6.84c-0.99,8.43-1.76,11.43-4.42,13.34c-2.66,1.9-5.36,1.05-4.3,7.02   C989.82,798.69,990.6,802.1,991.1,804.19z"/>
	<g>
		<path class="st12" d="M956.44,896.27c14.35,0,20.4-11.46,22.79-23.62c-14.06-5.33-31.78-13.88-46.47-26.76    C931.88,854.53,929.05,896.27,956.44,896.27z"/>
	</g>
</g>
</svg>