<svg xmlns="http://www.w3.org/2000/svg" xmlns:xlink="http://www.w3.org/1999/xlink" version="1.1" x="0px" y="0px" viewBox="0 0 750 500" style="enable-background:new 0 0 750 500;" xml:space="preserve">
<g xmlns="http://www.w3.org/2000/svg" id="Background_Complete">
	<path style="fill:#D4D4D4;" d="M499.58,140.76h-92c-0.55,0-1-0.45-1-1v0c0-0.55,0.45-1,1-1h92c0.55,0,1,0.45,1,1v0   C500.58,140.31,500.13,140.76,499.58,140.76z"/>
	<path style="fill:#D4D4D4;" d="M499.58,151.78h-92c-0.55,0-1-0.45-1-1l0,0c0-0.55,0.45-1,1-1h92c0.55,0,1,0.45,1,1l0,0   C500.58,151.33,500.13,151.78,499.58,151.78z"/>
	<path style="fill:#D4D4D4;" d="M442.42,162.8h-34.85c-0.55,0-1-0.45-1-1l0,0c0-0.55,0.45-1,1-1h34.85c0.55,0,1,0.45,1,1l0,0   C443.42,162.35,442.97,162.8,442.42,162.8z"/>
	<path style="fill:#D4D4D4;" d="M367.16,373.03h-92c-0.55,0-1-0.45-1-1l0,0c0-0.55,0.45-1,1-1h92c0.55,0,1,0.45,1,1l0,0   C368.16,372.58,367.71,373.03,367.16,373.03z"/>
	<path style="fill:#D4D4D4;" d="M367.16,384.05h-92c-0.55,0-1-0.45-1-1l0,0c0-0.55,0.45-1,1-1h92c0.55,0,1,0.45,1,1l0,0   C368.16,383.6,367.71,384.05,367.16,384.05z"/>
	<path style="fill:#D4D4D4;" d="M310.01,395.07h-34.85c-0.55,0-1-0.45-1-1l0,0c0-0.55,0.45-1,1-1h34.85c0.55,0,1,0.45,1,1l0,0   C311.01,394.62,310.56,395.07,310.01,395.07z"/>
</g>
<g xmlns="http://www.w3.org/2000/svg" id="Background_Simple" style="display:none;">
	<path style="display:inline;fill:#EBEBEB;" d="M631.15,109.83l-3.08-5.05C603.35,64.2,558.65,39.5,511.19,41.73   c-6.67,0.31-13.32,1.14-19.87,2.5c-43.68,9.05-81.79,41.5-97.69,83.18c-9.35,24.51-12.05,52.77-29.7,72.18   c-22.96,25.27-61.78,25.91-95.91,24.73c-34.12-1.18-72.97-0.44-95.82,24.93c-14.31,15.89-18.93,38.54-17.86,59.9   c2.82,56.54,42.52,107.25,93.15,132.57c50.64,25.32,110.36,27.81,165.93,16.97c77.84-15.18,151.98-57.41,196.7-122.91   C654.84,270.29,666.44,180.85,631.15,109.83z"/>
</g>
<g xmlns="http://www.w3.org/2000/svg" id="Character_2">
	<g>
		<g>
			<g>
				<path style="fill:#FFBE54;" d="M622.08,420.08h-174.6c-21.42,0-38.79-17.37-38.79-38.79V239.18c0-21.42,17.37-38.79,38.79-38.79      h174.6c21.42,0,38.79,17.37,38.79,38.79v142.11C660.87,402.71,643.5,420.08,622.08,420.08z"/>
			</g>
		</g>
		<g style="opacity:0.4;">
			<g>
				<path style="fill:#FFBE54;" d="M622.08,420.08h-174.6c-21.42,0-38.79-17.37-38.79-38.79V239.18c0-21.42,17.37-38.79,38.79-38.79      h174.6c21.42,0,38.79,17.37,38.79,38.79v142.11C660.87,402.71,643.5,420.08,622.08,420.08z"/>
			</g>
		</g>
		<g>
			<g>
				<g>
					<polygon style="fill:#FFBE54;" points="660.8,276.98 698.57,276.98 659.95,315.61      "/>
				</g>
			</g>
			<g style="opacity:0.4;">
				<g>
					<polygon style="fill:#FFBE54;" points="660.8,276.98 698.57,276.98 659.95,315.61      "/>
				</g>
			</g>
		</g>
	</g>
</g>
<g xmlns="http://www.w3.org/2000/svg" id="Character_1">
	<g>
		<g>
			<path style="fill:#2D94F3;" d="M327.41,114.47H148.72c-21.75,0-39.38,17.63-39.38,39.38v63.68H70.79l38.56,38.56v43.28     c0,21.75,17.63,39.38,39.38,39.38h178.69c21.75,0,39.38-17.63,39.38-39.38V153.85C366.79,132.1,349.16,114.47,327.41,114.47z"/>
		</g>
	</g>
</g>
<g xmlns="http://www.w3.org/2000/svg" id="Speech_Bubble">
</g>
<g xmlns="http://www.w3.org/2000/svg" id="Layer_6">
	<path style="fill:#F3AB75;" d="M366.14,208.96c0,0,4.51-5.47,6.93-6.23c2.42-0.77,7.11-4.4,7.72-2.9c0.61,1.5-3.15,3.8-2.95,5.51   c0.2,1.71,11.96,4.45,11.89,6.26c-0.07,1.81-2.77,6.18-7.25,5.68c-4.49-0.5-15.87-3.2-18.2-2.04   C361.93,216.41,366.14,208.96,366.14,208.96z"/>
	<path style="fill:#CDE9FF;" d="M244.81,182.37c6.64,8.92,14.42,15.97,22.41,21.53c25.4,17.67,52.95,20.3,52.95,20.3   c6.6-2.11,26.88-4.32,38.87-6.25h0c5.22-0.84,8.87-1.63,9.12-2.33l-0.3-10.44c0,0-43.99-2.33-51.28-5.7   c-11.49-9.9-21.64-22.75-28.25-32.79c-5.59-8.48-11.84-14.74-22.14-18.42C251.29,142.95,224.18,154.66,244.81,182.37z"/>
	<path style="fill:#9AC8E5;" d="M264.98,197.33l2.24,6.57c25.4,17.67,52.95,20.3,52.95,20.3c5.3,0,26.88-4.32,38.87-6.25   c-0.47,0.04-32.63,2.55-39.74,1.82c-7.16-0.74-40.5-29.63-40.5-29.63L264.98,197.33z"/>
	<path style="fill:#35488A;" d="M280.61,292.56c0,0,0,0.01,0,0.04c0,0.01,0,0.03,0,0.04c-0.01,0.1-0.02,0.21-0.02,0.31   c-0.01,0.1-0.02,0.2-0.02,0.3c-0.01,0.1-0.01,0.2-0.02,0.3c-0.01,0.18-0.03,0.37-0.04,0.56c-0.09,1.11-0.18,2.29-0.28,3.54   c-0.01,0.17-0.03,0.35-0.04,0.52c-0.05,0.67-0.11,1.35-0.16,2.06c-0.02,0.24-0.04,0.48-0.05,0.73c0,0.06-0.01,0.11-0.01,0.17   c-0.01,0.19-0.03,0.39-0.05,0.59c-0.01,0.18-0.03,0.36-0.04,0.55c-0.01,0.17-0.03,0.35-0.04,0.54c-0.07,0.78-0.13,1.58-0.19,2.4   c-0.01,0.13-0.02,0.25-0.03,0.37c-0.01,0.14-0.02,0.27-0.03,0.41c-0.02,0.28-0.04,0.56-0.07,0.85c-0.2,2.53-0.41,5.21-0.63,7.98   c-0.04,0.47-0.07,0.93-0.11,1.4c-0.05,0.63-0.1,1.27-0.15,1.9c-0.09,1.14-0.18,2.32-0.28,3.52c-0.08,1.08-0.17,2.18-0.26,3.28   c-0.07,0.88-0.14,1.77-0.21,2.66c-0.09,1.12-0.18,2.24-0.27,3.37c-0.14,1.77-0.28,3.56-0.43,5.35c-0.06,0.79-0.12,1.57-0.18,2.35   h-54.6c-1.26-21.88-2.26-40.23-2.63-47.04c-0.1-1.83-0.16-2.83-0.16-2.83l36.3,2.25c0,0,0.01,0,0.01,0l8.18,0.51L280.61,292.56   L280.61,292.56z"/>
	<path style="fill:#2C3A64;" d="M281.36,283.15c0,0-0.04,0.52-0.12,1.5c-0.12,1.57-0.34,4.3-0.63,7.92v0.04c0,0.01,0,0.03,0,0.04   c-0.01,0.1-0.02,0.21-0.02,0.31c-0.01,0.1-0.02,0.2-0.02,0.3c-0.01,0.1-0.01,0.2-0.02,0.3c-0.01,0.18-0.03,0.37-0.04,0.56   c-0.09,1.11-0.18,2.29-0.28,3.54c-0.01,0.17-0.03,0.35-0.04,0.52c-0.05,0.67-0.11,1.35-0.16,2.06c-0.02,0.24-0.04,0.48-0.05,0.73   c0,0.06-0.01,0.11-0.01,0.17c-0.01,0.19-0.03,0.39-0.05,0.59c-0.01,0.18-0.03,0.36-0.04,0.55c-0.01,0.17-0.03,0.35-0.04,0.54   c-0.07,0.78-0.13,1.58-0.19,2.4c-0.01,0.13-0.02,0.25-0.03,0.37c-0.01,0.14-0.02,0.27-0.03,0.41c-0.02,0.28-0.04,0.56-0.07,0.85   c-0.2,2.53-0.41,5.21-0.63,7.98c-0.04,0.47-0.07,0.93-0.11,1.4c-0.05,0.63-0.1,1.27-0.15,1.9c-0.09,1.14-0.18,2.32-0.28,3.52   c-0.08,1.08-0.17,2.18-0.26,3.28c-0.07,0.88-0.14,1.77-0.21,2.66c-0.09,1.12-0.18,2.24-0.27,3.37c-0.14,1.77-0.28,3.56-0.43,5.35   c-0.06,0.79-0.12,1.57-0.18,2.35h-54.6c-1.26-21.88-2.26-40.23-2.63-47.04c-0.1-1.83-0.16-2.83-0.16-2.83l47.32-4.32L281.36,283.15   z"/>
	<path style="fill:#35488A;" d="M267.41,283.15c0,0-0.18,0.46-0.53,1.32c-0.42,1.04-1.08,2.69-1.94,4.83   c-0.28,0.7-0.58,1.45-0.89,2.25c-4.02,10.07-11.15,28-18.6,47.11h-55.76c1.97-18.83,4.88-38.33,10.35-52.3   c4.6-11.76,11.02-19.6,20.22-19.86C256.3,265.48,267.41,283.15,267.41,283.15z"/>
	<path style="fill:#F3AB75;" d="M251.9,155.75c-5.3,2.79-10.47,2.97-14.96,2.01c-4.1-0.86-7.62-2.67-10.13-4.28   c-2.57-1.65-4.09-3.08-4.09-3.08s0.18-0.26,0.48-0.77c1.57-2.68,6.31-12.31,4.2-27.78c-0.03-0.2,1.5,0.08,3.82,0.63   c6.89,1.63,20.74,5.56,21.35,5.73c0.01,0,0.02,0,0.02,0s0.17,3.25,0.74,9.09c0.05,0.51,0.1,1.05,0.16,1.61   c0.07,0.68,0.14,1.41,0.23,2.15C254.36,147.14,251.9,155.75,251.9,155.75z"/>
	<path style="fill:#E08F54;" d="M253.34,137.31c-10.28,2.36-25.63-12.83-25.63-12.83c1.12-0.83,2.3-1.49,3.52-1.99   c6.89,1.63,20.74,5.56,21.35,5.73c0.01,0,0.02,0,0.02,0S252.77,131.48,253.34,137.31z"/>
	<path style="fill:#F3AB75;" d="M256.83,127.41c0,0-4.23,1.52-9.62,2.24c-7.88,1.06-18.25,0.44-21.51-9.1   c-5.49-16.06-12.49-25.68,3.65-32.24c8.64-3.51,14.17-3.7,17.92-2.36c3.26,1.16,5.19,3.47,6.64,5.75   C257.06,96.62,263.36,124.6,256.83,127.41z"/>
	<path style="fill:#ffbe55;" d="M266.63,92.97c-9.35,6.72-22.28,0.11-26.3,1.9c-4.01,1.78-4.74,8.52-4.81,10.65   c-0.07,2.14-0.35,3.95-5.81,2.67c-0.89-0.21-1.54-0.15-1.98,0.12c-2.26,1.34,0.63,7.85,1.5,9.25c0,0,1.25,4.66-1.53,6.93   c-0.34,0.27-5.81,2.66-18.98-17.51c-2.07-3.17-4.05-10.3-0.85-17.16c3.19-6.87,16.55-13.5,27.88-17.02   c4.24-1.32,7.39-1.27,9.85-0.37c4.11,1.5,6.3,5.38,8.47,9.28C257.72,88.26,266.63,92.97,266.63,92.97z"/>
	<path style="fill:#CDE9FF;" d="M286.04,268.59c-0.75,9.9-2.85,17-7.43,17c0,0-20.4,7.18-44.77,7.37   c-4.76,0.03-11.51-0.89-17.11-1.83c-5.72-0.97-10.24-1.94-10.24-1.94c-4.9-1.13-10.31-4.16-9.58-9.75   c0.41-3.16,0.7-7.29,0.89-12.08c0.54-12.95,0.45-30.78,0.52-47.86c0.05-10.49,0.15-20.68,0.5-29.28c0,0-4.81-33.78,0.53-39.32   c6.26-6.48,24.64-8.48,25.79-8.23c0.35-0.07,0.69-0.16,1.05-0.22c0,0,15.65,8.82,27.28,2.29c0,0,0.11,0.02,0.33,0.05   c2.83,0.45,16.97,3.72,21.85,8.88c1.68,1.77,8.41,12.68,8.59,24.66c0.26,16.7-0.4,35.66-0.4,35.67c0.17,2.71,0.46,6.21,0.78,10.2   c0.34,4.25,0.72,9.06,1.04,14.06c0.16,2.53,0.31,5.1,0.43,7.68C286.44,253.89,286.55,261.89,286.04,268.59z"/>
	<path style="fill:#9AC8E5;" d="M225.21,142.69c0,0,17.32,17.87,29.71,14.21c0,0,1.65-2.41-3.93-3.19   C245.41,152.94,239.39,153.25,225.21,142.69z"/>
	<path style="fill:#FFFFFF;" d="M256.96,117.04c0,0,0.34,2.08-4.49,3.74c0,0-4.06,1.39-4.8-0.74   C247.66,120.04,250.89,116.97,256.96,117.04z"/>
	<path style="fill:#9AC8E5;" d="M214.23,205.48c0,0,0.03,48.32-16.43,61.88c0.54-12.95,0.45-30.78,0.52-47.86L214.23,205.48z"/>
	<path style="fill:#F3AB75;" d="M163.6,295.93c0,0-8.39,13.17-8.86,18.2c-0.32,3.43,0.45,16.93,2.16,16.98   c2.41,0.07,4.83-8.34,5.76-10.52c0.93-2.18,2.02-3.89,2.96-3.89c0.93,0-2.02,8.41,0,7.48c2.02-0.93,5.45-8.72,5.76-10.59   c0.31-1.87-1.83-7.86-0.78-10.21C171.65,301.02,163.6,295.93,163.6,295.93z"/>
	<path style="fill:#CDE9FF;" d="M200.94,149.07c0,0-11.33,5.35-20.83,44.98c-7.16,29.87-20.87,106.15-20.87,106.15l11.6,4.77   c0,0,42.46-97.49,48.54-111.2C225.45,180.06,200.94,149.07,200.94,149.07z"/>
	<path style="fill:#0A4971;" d="M552.46,185.3c-8.38-4.35-15.09-1.62-15.09-1.62c-25.63-3.01-33.11,26.88-32.76,37.17   c0.35,10.29,1.52,21.34-9.92,34.7c-13.33,15.56-10.04,25.13-1.35,31c3.05,2.07,6.76,3.67,10.66,4.92c1.37,0.44,2.76,0.84,4.15,1.2   c3.21,0.82,6.42,1.43,9.38,1.89c7.49,1.15,13.35,1.3,13.35,1.3c0.39-20.58,16.97-22.42,27.49-20.43c2.17,0.41,4.09,0.98,5.54,1.58   c2.07,0.86,3.21,1.78,2.9,2.39c1.19,0.28,2.32,0.5,3.4,0.65c6.95,1,11.61-0.68,14.47-4.22   C599.07,258.05,567.95,193.34,552.46,185.3z"/>
	<path style="fill:#F3AB75;" d="M453.58,313.88c0,0-4.51-6.86-8.14-7c-3.63-0.13-10.36-2.02-9.82-0.67   c0.54,1.35,4.71,1.48,5.11,2.29c0.4,0.81-6.19,2.02-8.07,2.15c-1.88,0.13-6.32,0-6.19,0.94c0.13,0.94,8,4.84,13.56,4.31   c5.55-0.54,12.42,1.61,12.42,1.61L453.58,313.88z"/>
	<path style="fill:#F3F3F3;" d="M518.77,316.1c0,0-2.45,4.85-6.9,10.43c-5.36,6.71-13.62,14.46-23.99,15.99   c-4.95,0.73-9.8-0.33-14.25-2.31c-0.01,0-0.02,0-0.02,0c-12.6-5.59-22.07-18.45-22.07-18.45c-2.22-6.06,1.41-10.16,1.41-10.16   s25.43,5.72,27.85,4.51c2.42-1.21,16.55-41.91,19.91-47.03c3.37-5.11,14.83-7.77,14.83-7.77L518.77,316.1z"/>
	<path style="fill:#D3D3D3;" d="M511.88,326.52c-5.36,6.71-13.62,14.46-23.99,15.99c-4.95,0.73-9.8-0.33-14.25-2.31   c0.49,0.06,13.07,1.62,18.09-7.35c5.11-9.15,10.65-23.68,18.24-18.84C513.25,316.1,513.1,321.3,511.88,326.52z"/>
	<path style="fill:#F3AB75;" d="M579.04,378.39c-8.97-20.12-14.46-25.9-13.41-32.14c0.78-4.65-2.37-86.67-2.37-86.67   c-1.06-0.33-3.2-0.63-4.37-0.88c-3.68-0.82-6.73-3.4-7.99-6.95c-1.53-4.28-2.74-10.59-2.71-18.51l-1.15,0.23l-19.33,3.83   c0,0,0.44,6.08,0.45,11.81c0,0.05,0,0.1,0,0.14c0.02,4.98-3.24,9.37-8.02,10.75c-2.44,0.7-4.56,1.31-4.56,1.31   s-7.1,20.26-8.45,41.07c-1.35,20.81,12.9,29.85-0.11,71.45C493.73,416.29,584,389.51,579.04,378.39z"/>
	<path style="fill:#DB8D53;" d="M527.71,237.29c0,0,0.44,6.08,0.45,11.81c10.81-0.3,16.53-10.17,18.87-15.64L527.71,237.29z"/>
	<path style="fill:#F3AB75;" d="M524.1,242.71c0,0,25.59,0.42,25.6-15.52c0.02-15.94,3.33-26.62-13-27.56   c-16.34-0.94-19.52,5.13-20.82,10.45C514.58,215.41,517.44,242.19,524.1,242.71z"/>
	<path style="fill:#0A4971;" d="M525.04,199.25c0,0,7.01,18.7,17.76,21.46c10.75,2.76,15.41-0.12,15.41-0.12s-8.25-6.55-9.96-17.99   C548.25,202.61,530.33,190.35,525.04,199.25z"/>
	<path style="fill:#0A4971;" d="M526.78,200.76c0,0-5.2,1.94-7.33,5.73c-2.09,3.71-3.87,8.61-3.46,14.63c0,0-5.28-12.71,0.65-19.9   C522.93,193.61,526.78,200.76,526.78,200.76z"/>
	<path style="fill:#EAF1F8;" d="M529.66,232.83c0,0-1.77,2.32-5.3,2.16c-2.84-0.13-3.94-2.6-3.94-2.6S525.65,231.12,529.66,232.83z"/>
	<path style="fill:#F3F3F3;" d="M575.56,295.86c0,0-0.1,12.13-0.75,23.13c-0.43,7.29-1.1,14.07-2.15,16.49   c-2.62,6.06-5.58,7.04-5.58,7.04l-22.89,5.61l-8.05,1.97l-25.38-7.58c0,0-11.56-32.27-6.92-50.44   c4.64-18.17,11.74-30.78,11.74-30.78s20.71,20.28,47.68-1.72L575.56,295.86z"/>
	<path style="fill:#D3D3D3;" d="M574.81,318.99c-0.43,7.29-1.1,14.07-2.15,16.49c-2.62,6.06-5.58,7.04-5.58,7.04l-22.89,5.61   l-9.94-2.92c0,0,33.19-5.03,29.51-33.59L574.81,318.99z"/>
	<path style="fill:#137ECE;" d="M551.11,419.86h-50.47c-1.15-10.43-1.79-17.68-1.65-20c0.65-10.72,8.91-38.12,12.12-48.44   c0.78-2.51,1.26-4.01,1.26-4.01h34.02c0,0,0,0.06,0,0.18c0,0.08,0,0.19,0.01,0.33c0.01,0.88,0.03,2.91,0.09,5.89   c0.18,7.93,0.69,22.67,2.15,40.82C549.26,402.49,550.07,410.99,551.11,419.86z"/>
	<path style="fill:#2A94F3;" d="M588.34,419.86h-57.37c-3.05-8.31-6.51-16.35-10.4-23.56c-0.79-1.48-1.6-2.92-2.44-4.33   c-3.77-6.36-0.09-27.06,1.93-36.77c0.11-0.52,0.21-1.02,0.31-1.48c0.03-0.15,0.06-0.29,0.09-0.44c0.44-2,0.72-3.19,0.72-3.19   l5.02-0.44l1.81-0.15l4.76-0.41h0.01l11.34-0.99h0.01l0.2-0.02h0.01l2.05-0.18l19.24-1.67c0,0,1.06,1.43,2.72,3.84   c5.36,7.82,16.88,25.99,18.24,39.28C587.22,395.44,587.75,406.86,588.34,419.86z"/>
	<path style="fill:#FFFFFF;" d="M529.09,233.25c0,0-0.44,1.88-5.11,1.59c0,0-3.92-0.24-3.8-2.31   C520.18,232.53,523.98,231.07,529.09,233.25z"/>
	<path style="fill:#2C3A64;" d="M510.36,341.37c0,0,5.05,3.99,15.07,4.19c11.97,0.24,41.65-3.05,41.65-3.05s1.32,3.68,1.26,7.57   c0,0-36.24,9.14-57.24,1.33C511.11,351.42,508.4,346.32,510.36,341.37z"/>
	<g>
		<path style="fill:#FFFFFF;" d="M528.02,349.5c-0.02-0.68-0.13-1.33-0.33-1.93c-0.02-0.06-0.04-0.11-0.06-0.16    c-0.24-0.68-0.58-1.3-1.01-1.83c-1-1.27-2.46-2.07-4.07-2.07c-1.3,0-2.49,0.51-3.42,1.37h-0.01c-0.04,0.03-0.07,0.06-0.1,0.1    c-0.68,0.65-1.22,1.48-1.55,2.43c-0.25,0.71-0.39,1.48-0.39,2.29c0,1.36,0.39,2.62,1.05,3.65c0.5,0.77,1.16,1.41,1.92,1.86    c0.75,0.44,1.6,0.68,2.49,0.68c1.37,0,2.62-0.57,3.59-1.53c1.15-1.13,1.88-2.8,1.88-4.66    C528.02,349.63,528.02,349.57,528.02,349.5z M526.21,349.7c0,2.29-1.47,4.18-3.35,4.36h-0.01c-0.1,0.01-0.19,0.02-0.29,0.02    c-0.36,0-0.7-0.06-1.03-0.18h-0.01l-0.01-0.01c-0.38-0.13-0.73-0.34-1.05-0.6c-0.94-0.79-1.56-2.11-1.56-3.59    c0-0.84,0.2-1.62,0.54-2.29c0.41-0.8,1.03-1.42,1.76-1.78c0.3-0.14,0.62-0.23,0.95-0.28c0.13-0.02,0.26-0.03,0.4-0.03    c0.32,0,0.63,0.05,0.93,0.14c0.73,0.23,1.37,0.72,1.85,1.39c0.01,0,0.01,0.01,0.01,0.01c0.13,0.17,0.24,0.35,0.33,0.54    c0.34,0.66,0.54,1.42,0.54,2.25V349.7z"/>
	</g>
	<path style="fill:#F3AB75;" d="M603.88,390.33c0,0,0.02,4.63,0.9,6.87c0.88,2.23,3.51,5.21,4.39,5.21c0.88,0-0.81-4.66-0.37-4.56   c0.44,0.09,2.56,7.75,4.1,7.93c1.54,0.19,2.93-8.59,2.13-12.03c-0.81-3.44-4.28-7.58-4.28-7.58L603.88,390.33z"/>
	<path style="fill:#F3F3F3;" d="M563.25,259.58c0,0,14.15,1.92,21.77,16.93c5.89,11.6,9.93,48.08,14.08,59.57   c3.98,10.99,9.46,32.25,12.52,49.27c0.24,1.32-0.49,2.62-1.74,3.12l-5.2,2.06c-1.12,0.45-2.4,0.01-3.02-1.03   c-4.62-7.77-22.86-38.87-29.19-56.86c-7.4-21.03-21.25-34.1-21.25-34.1L563.25,259.58z"/>
</g>
</svg>