<svg xmlns="http://www.w3.org/2000/svg" xmlns:xlink="http://www.w3.org/1999/xlink" version="1.1" x="0px" y="0px" viewBox="0 0 500 500" style="enable-background:new 0 0 500 500;" xml:space="preserve">
<g xmlns="http://www.w3.org/2000/svg" id="BACKGROUND">
	<rect y="0" style="fill-rule:evenodd;clip-rule:evenodd;fill:#FFFFFF;" width="500" height="500"/>
</g>
<g xmlns="http://www.w3.org/2000/svg" id="OBJECTS">
	<g>
		<g>
			<defs>
				<path id="SVGID_1_" d="M303.98,135.25c-57.17,35.47-95.09-2.86-125.2-13.59S44.2,115.93,44.2,217.53s70.12,125.13,52.23,170.97      s83.76,64.44,128.81,37.96s102.69-32.2,123.96-22.9c21.27,9.3,75.65-6.68,91.39-55.93s27.9-156.57-9.3-210.24      S330.51,118.79,303.98,135.25z"/>
			</defs>
			<clipPath id="SVGID_2_">
				<use xmlns:xlink="http://www.w3.org/1999/xlink" xlink:href="#SVGID_1_" style="overflow:visible;"/>
			</clipPath>
			<g style="clip-path:url(#SVGID_2_);">
				<path style="fill-rule:evenodd;clip-rule:evenodd;fill:#CCE9FF;" d="M303.98,135.25c-57.17,35.47-95.09-2.86-125.2-13.59      S44.2,115.93,44.2,217.53s70.12,125.13,52.23,170.97s83.76,64.44,128.81,37.96s102.69-32.2,123.96-22.9      c21.27,9.3,75.65-6.68,91.39-55.93s27.9-156.57-9.3-210.24S330.51,118.79,303.98,135.25z"/>
				<g>
					<path style="fill-rule:evenodd;clip-rule:evenodd;fill:#7ebcff;" d="M172.54,233.99c15.03,0,27.29-12.26,27.29-27.29       c0-15.03-12.26-27.29-27.29-27.29c-15.03,0-27.29,12.26-27.29,27.29C145.25,221.73,157.51,233.99,172.54,233.99z"/>
					<path style="fill-rule:evenodd;clip-rule:evenodd;fill:#D1544B;" d="M158.82,198.8L158.82,198.8c3.1-3.09,8.16-3.09,11.25,0       l2.47,2.47l2.47-2.47c3.09-3.09,8.16-3.09,11.25,0l0,0c8,8-3.9,17.34-13.72,22.71C163.58,217.4,150.81,206.81,158.82,198.8z"/>
					<path style="fill-rule:evenodd;clip-rule:evenodd;fill:#2994F3;" d="M364.95,195.18c14.27,0,25.91-11.64,25.91-25.91       c0-14.27-11.64-25.92-25.91-25.92c-14.27,0-25.91,11.64-25.91,25.92C339.04,183.54,350.68,195.18,364.95,195.18z"/>
					<g>
						<rect x="354.58" y="167.6" style="fill-rule:evenodd;clip-rule:evenodd;fill:#7ebcff;" width="21.18" height="3.33"/>
						<path style="fill-rule:evenodd;clip-rule:evenodd;fill:#7ebcff;" d="M350.67,163.22L350.67,163.22c1.24,0,2.26,1.02,2.26,2.26        v7.58c0,1.24-1.02,2.26-2.26,2.26l0,0c-1.24,0-2.26-1.02-2.26-2.26v-7.58C348.41,164.24,349.43,163.22,350.67,163.22z"/>
						<path style="fill-rule:evenodd;clip-rule:evenodd;fill:#7ebcff;" d="M352.78,160.73L352.78,160.73        c-1.24,0-2.26,1.02-2.26,2.26v12.58c0,1.24,1.02,2.26,2.26,2.26l0,0c1.24,0,2.26-1.01,2.26-2.26v-12.58        C355.03,161.74,354.02,160.73,352.78,160.73z"/>
						<path style="fill-rule:evenodd;clip-rule:evenodd;fill:#7ebcff;" d="M354.95,158.79L354.95,158.79c1.24,0,2.26,1.02,2.26,2.26        v16.45c0,1.24-1.02,2.26-2.26,2.26h0c-1.24,0-2.26-1.02-2.26-2.26v-16.45C352.7,159.81,353.71,158.79,354.95,158.79z"/>
						<path style="fill-rule:evenodd;clip-rule:evenodd;fill:#7ebcff;" d="M379.23,163.22L379.23,163.22        c-1.24,0-2.26,1.02-2.26,2.26v7.58c0,1.24,1.02,2.26,2.26,2.26l0,0c1.24,0,2.26-1.02,2.26-2.26v-7.58        C381.49,164.24,380.47,163.22,379.23,163.22z"/>
						<path style="fill-rule:evenodd;clip-rule:evenodd;fill:#7ebcff;" d="M377.12,160.73L377.12,160.73c1.24,0,2.26,1.02,2.26,2.26        v12.58c0,1.24-1.02,2.26-2.26,2.26l0,0c-1.24,0-2.26-1.01-2.26-2.26v-12.58C374.87,161.74,375.88,160.73,377.12,160.73z"/>
						<path style="fill-rule:evenodd;clip-rule:evenodd;fill:#7ebcff;" d="M374.95,158.79L374.95,158.79        c-1.24,0-2.26,1.02-2.26,2.26v16.45c0,1.24,1.02,2.26,2.26,2.26l0,0c1.24,0,2.26-1.02,2.26-2.26v-16.45        C377.2,159.81,376.19,158.79,374.95,158.79z"/>
					</g>
					<path style="fill-rule:evenodd;clip-rule:evenodd;fill:#7ebcff;" d="M405.52,273.67c15.92,0,28.9-12.98,28.9-28.9       c0-15.91-12.98-28.9-28.9-28.9c-15.91,0-28.9,12.98-28.9,28.9C376.63,260.69,389.61,273.67,405.52,273.67z"/>
					<path style="fill-rule:evenodd;clip-rule:evenodd;fill:#0F538C;" d="M404.62,232.89c0.23-2.05,1.16-5.95,2.47-6.22       c0.76-0.15,1.75,0.16,0.94,1.97c-0.79,1.76-2.08,4.63-2.17,9.18C405.78,241.89,404.36,235.23,404.62,232.89z"/>
					<path style="fill-rule:evenodd;clip-rule:evenodd;fill:#0F538C;" d="M405.12,234.47c-0.25-3.36-3.11-5.96-7.23-5.91       c-4.12,0.05-5.3,0.56-5.3,0.56S396.05,237.47,405.12,234.47z"/>
					<path style="fill-rule:evenodd;clip-rule:evenodd;fill:#D1544B;" d="M401.77,262.92c2.39,0.26,3.01-1.32,3.82-1.32       c0.83,0,1.85,1.58,3.72,1.32c4.67-0.64,19.39-20.79,7.26-27.16c-3.03-1.59-7.69,0.51-11.04,2.77       c-2.92-1.97-6.89-4.14-9.75-3.05C381.67,240.9,396.11,262.31,401.77,262.92z"/>
					
						<ellipse transform="matrix(3.920869e-03 -1 1 3.920869e-03 -212.2195 478.9718)" style="fill-rule:evenodd;clip-rule:evenodd;fill:#0F538C;" cx="134.32" cy="346.01" rx="28.9" ry="28.9"/>
					<path style="fill-rule:evenodd;clip-rule:evenodd;fill:#F7F7F7;" d="M124.82,330.77h19c0.63,0,1.21,0.48,1.14,1.05l-3.61,28.37       c-0.07,0.58-0.51,1.05-1.14,1.05h-11.57c-0.63,0-1.06-0.48-1.14-1.05l-3.81-28.37C123.6,331.25,124.19,330.77,124.82,330.77z"/>
					<path style="fill-rule:evenodd;clip-rule:evenodd;fill:#CCE9FF;" d="M136.04,343.69c-3.55-1.7-6.57-1.52-8.69-0.39l2.13,15.84       h9.87l1.94-15.22C139.44,344.34,137.55,344.41,136.04,343.69z"/>
					<g>
						<path style="fill-rule:evenodd;clip-rule:evenodd;fill:#FFFFFF;" d="M128.96,345.23c-0.12,1.66,0.23,5.09,0.5,7.13        c0.33,2.58,1.72,2.06,1.58,0.43c-0.11-1.28-0.2-6.31-1.03-7.93C129.52,343.92,129.02,344.33,128.96,345.23z"/>
						<path style="fill-rule:evenodd;clip-rule:evenodd;fill:#FFFFFF;" d="M131.41,355.5c-0.07-0.76-1.31-0.99-1.44-0.23        C129.72,356.86,131.55,357.07,131.41,355.5z"/>
					</g>
					<g id="LEGS">
						<path style="fill:#E87354;" d="M321.56,604.15l9.87-44.82c12.62-11.59,116.37-29.28,116.37-29.28s-0.2-7.92,1.69-9.6        c5.08-4.52,16.94,1.69,22.59-1.13c2.58-1.29,11.25-7.45,13.82-8.47c7.08-2.82,13.29,2.82,13.29,2.82        S347.09,604.93,321.56,604.15z"/>
						<path style="fill:#E87354;" d="M296.31,664.2c0.09,29.73-20.45,129.83-21.02,132.66c-0.56,2.82,11.01,14.11,4.23,18.07        c-4.02,2.35-6.77,4.8-10.05,16.67c-3.29,11.9-19.23,7.33-19.23,7.33c-2.46-5.65,3.59-6.21,3.59-6.21        c2.82,0,5.65-14.12,6.78-24.85c1.13-10.73,2.26-48.02,0-91.51c-1.69-32.52-13.16-70.08-18.85-86.98        c-1.92-5.71-3.18-9.05-3.18-9.05s0.01,0,0.02-0.01c0.31-0.14,32.19-5.94,37.76-8.21C276.36,612.09,296.23,638.43,296.31,664.2        z"/>
					</g>
					<g id="SHORTS">
						<path style="fill:#0C4772;" d="M332.51,559.33l-10.95,44.82c0,0-21.47,1.24-49.08-37.28l0.1,1.17l2.62,30.77l1.15,13.54        l-37.78,8.22c0,0-21.24-52.1-37.86-117.81c-16.62-65.72-3.73-118.72-3.73-118.72h59.92c0,0,25.86,25.96,34.83,51.66        c7.2,20.62-0.6,37.05,2.61,50.03C297.57,498.72,332.51,559.33,332.51,559.33z"/>
						<path style="fill:#0C4772;" d="M275.2,598.82c-11.32-11.31-43.66-49.29-50.4-119.58c0,0,9.49,48.99,47.68,88.7        c0.03,0.03,0.07,0.07,0.1,0.1L275.2,598.82z"/>
					</g>
					<polygon id="BODY" style="fill:#E87354;" points="261.4,359.43 256.91,384.05 196.98,384.05 196.98,384.02 193.38,358.48             "/>
					<path id="TOP" style="fill:#7ebcff;" d="M278.49,271.12l-17.09,88.32l-68.02-0.95c-1.5-3.01-16.57-21.09-12.8-33.89       c3.77-12.8,23.35-57.99,23.35-57.99l19.63,1.19l-0.01,0.12c0,0,11.55,18.27,32.41,2.34c-0.02-0.16-0.04-0.32-0.06-0.5       L278.49,271.12z"/>
					<path id="RIGHT_HAND" style="fill:#FC7354;" d="M414.72,291.26c-3.96,2.82-19.68,8.75-20.81,11.58       c-1.13,2.82-36.45,89.34-56.22,88.59c-19.77-0.75-62.6-73.38-66.17-76.88c-3.57-3.51-7.9-43.8,6.97-43.43       c8.15,0.21,19.96,15.06,24.48,28.62c4.52,13.55,30.5,54.23,30.5,54.23s53.8-58.81,54.71-62.7c2.26-9.6,1.5-20.15,1.5-20.15       s5.57-0.87,5.65,4.96c0.06,4.46,2.56,11.22,6.51,11.22c1.43,0,2.94-0.14,4.46-0.6c0.79-3.74,3.48-15.74,5.63-15.74       c3.13,0,1.08,8.56,0.09,12.1c0.65-0.72,1.27-1.56,1.85-2.53c3.39-5.65,4.24-8.97,7.63-9.57       C424.9,270.35,418.68,288.43,414.72,291.26z"/>
					<path id="LEFT_HAND" style="fill:#E87354;" d="M203.93,266.6c0,0-11.67-3.58-34.83,0c-46.33,7.16-74.56-14.31-74.56-14.31       s23.72-32.2,28.24-42.37s20.34-35.02,20.34-35.02s9.33,8.75,13.29,10.45c3.95,1.69,13.56,4.24,13.56,4.24s0.63-4.06-2.26-5.65       c-8.21-4.52-10.46-10.73-3.69-9.04c6.78,1.69,10.73,5.65,11.3,9.04c0.56,3.39,2.56,7.34,4.67,7.34       c2.11,0,0.41-19.32-2.98-21.24c-3.39-1.92-27.11-11.23-35.01-8.97c-7.91,2.26-54.83,53.41-66.1,67.49       c-8.23,10.29-18.08,24.29-12.43,31.63c5.65,7.34,38.8,29.61,66.09,35.02c33.33,6.61,61.17,2.67,59.68,6.36       C187.74,305.27,203.93,266.6,203.93,266.6z"/>
					<path id="HEAD" style="fill:#E87354;" d="M255.9,269.75c0.02,0.17,0.04,0.34,0.06,0.5c-20.86,15.94-32.41-2.34-32.41-2.34       l0.01-0.12l1.23-14.6l1.04-12.22h-0.01c-0.36-0.04-11.9-1.07-14.45-2.03c-2.59-0.97-4.96-25.29-3.3-33.19       c1.17-5.55,4.1-14.48,8.09-21.04c2.4-1.74,6.55-3.06,12.57,0.7c10.09,6.3,11.59,29.07,11.59,29.07s5.38-9.91,11.54-7.17       c6.16,2.75-2.86,14.73-2.5,20.37c0.56,8.73,8.16,16.7,8.16,16.7S254.98,261.71,255.9,269.75z"/>
					<path id="HAIR_2_" style="fill:#1E0F00;" d="M216.17,184.7c2.41-1.75,6.55-3.06,12.57,0.69c10.09,6.3,11.59,29.07,11.59,29.07       s5.37-9.91,11.53-7.16c6.16,2.74-2.86,14.73-2.5,20.36c0.56,8.73,8.16,16.7,8.16,16.7c0.3-0.21,0.59-0.41,0.89-0.63       c0,0,0,0,0.01-0.01c1.26-0.91,2.45-1.84,3.59-2.8c17.24-14.52,20.89-34.36,15.79-44.32c-1.51-2.94-2.85-5.42-4.04-7.52       c0,0,14.35-1.33,16.29,9.9c1.94,11.22-21.04,28.2-9.59,50.4c5.92,11.49-6.56,8.83-16.41,36.8       c-15.39,43.68,38.5,73.25,38.5,73.25s-19.11-31.42,18.62-45.19c18.36-6.7,19.58-38.53,4.93-49.86       c-11.05-8.55-21.2-24.07-7.32-44.72c13.88-20.65-0.5-50.91-22.16-55.55c-21.66-4.64-30.17,14.17-30.17,14.17       c-2.59-0.97-27.2-13.21-44.71-0.2C219.73,179.58,217.85,181.93,216.17,184.7z"/>
					<path id="SHADOW" style="fill:#FC7354;" d="M240.47,236.69c-1.13,9.54-15.67,16.49-15.67,16.49l1.04-12.22       C232.53,240.24,240.47,236.69,240.47,236.69z"/>
					<path style="fill:#1E0F00;" d="M222.56,179.33c0,0-12.93,3.49-9.25,11.04c3.68,7.55,27.17,13.19,27.17,13.19       s-17.46-18.01-12.39-22.09S222.56,179.33,222.56,179.33z"/>
				</g>
			</g>
		</g>
		<ellipse style="fill-rule:evenodd;clip-rule:evenodd;fill:#CCE9FF;" cx="319.07" cy="423.13" rx="20.23" ry="15.49"/>
		<ellipse style="fill-rule:evenodd;clip-rule:evenodd;fill:#CCE9FF;" cx="229.77" cy="100.32" rx="20.23" ry="15.49"/>
	</g>
</g>
</svg>