<svg xmlns="http://www.w3.org/2000/svg" xmlns:xlink="http://www.w3.org/1999/xlink" version="1.1" x="0px" y="0px" width="500px" height="421px" viewBox="0 0 500 421" enable-background="new 0 0 500 421" xml:space="preserve">
<g xmlns="http://www.w3.org/2000/svg" id="BACKGROUND">
</g>
<g xmlns="http://www.w3.org/2000/svg" id="DESIGNED_BY_FREEPIK">
	<g>
		<g opacity="0.3">
			<path fill="#00aef0" d="M389.814,213.945c-35.799-21.461-16.773-29.504-11.166-54.605c5.055-22.623-3.469-66.301-46.469-56.17     c-36.961,8.699-60.689,6.529-81.631-3.891c-20.939-10.43-93.309-34.32-99.1,39.9c-2.76,35.459-7,49-33.561,66.57     c-26.559,17.58-39.74,46.289-32.479,71.539c6.879,23.91,29.658,35.941,73.309,30.23c32.691-4.289,54.791,13.561,77.84,22.91     c27.131,10.99,49.701-7.43,70.73-17.83c37.811-18.699,37.275,19.336,79.125-0.516     C426.465,293.096,425.615,235.404,389.814,213.945z M340.42,213.109c-4.5-1.9-10.75-4.6-15.98-3.4     c0.35,2.141,0.27,4.17,0.09,5.701c6.42,9.5,7.131,21.789,6.25,31.639h1.029v4.801h-1.6c-0.27,1.891-0.59,3.619-0.9,5.16h1.141     v4.799h-2.279c-0.031,0.141-0.07,0.271-0.102,0.391h5.922v5.41h2.709v4.801h-6.25v5.369h2.711v4.801h-27.281v-4.541     c-23.73,0.961-57.92,0.42-59.619-3.76c-1.871-4.6,6.75-11.629,6.75-11.629s-0.67-2.621-0.6-12.512     c1.059-18.898,16.26-41.299,35.309-46.818c2.701-0.781,5.281-1.221,7.721-1.381c2.77-2.561,7.199-5.881,11.779-5.01     c0.771,0.15,1.561,0.33,2.34,0.539c2.791-4.559,7.771-13.318,7.25-16.77c2.531-1.59,6.871,3.951,6.871,6.93     c3.98,1.391,9.77,3.76,10.311,7.131c0.539,3.369,0.18,5.74,0.18,5.74s8.859,3.959,9.398,13.869     C342.68,214.059,341.609,213.609,340.42,213.109z"/>
		</g>
		<g>
			<g>
				<polygon fill="#8EA54E" points="196.922,113.393 196.814,113.439 196.842,113.266     "/>
				<path fill="#8EA54E" d="M197.74,107.551c-0.072,0.082-0.139,0.162-0.205,0.242l0.018-0.146L197.74,107.551z"/>
				<path fill="#8EA54E" d="M200.875,105.926c-0.029,0.016-0.365,0.18-0.912,0.457l0.604-0.314      C200.67,106.016,200.771,105.963,200.875,105.926z"/>
				<path fill="#2A94F4" d="M199.963,106.383l-0.006,0.002c-0.006,0.004-0.006,0.004-0.014,0.006l-0.127,0.066      c-1.041,0.529-2.748,1.406-4.686,2.398c-0.012,0.006-0.014,0.016-0.023,0.027l-0.006,0.004      c-0.344,0.182-0.695,0.359-1.055,0.537c-0.064,0.039-0.137,0.076-0.207,0.104c-0.963,0.49-1.951,0.992-2.906,1.471      c-1.482,0.762-2.932,1.498-4.162,2.139c-0.008-0.002-0.008-0.002-0.012,0.008c0,0,0,0-0.006,0.002      c-0.191,0.09-0.373,0.182-0.545,0.277c-0.01-0.002-0.01-0.002-0.014,0.006c-0.799,0.408-1.49,0.76-2.008,1.031      c-0.012-0.004-0.014,0.006-0.014,0.006l-1.055,0.537c-0.018,0.008-0.029,0.014-0.029,0.014c-2.256,1.148-3.885,3.15-4.537,5.514      c-0.109,0.385-0.195,0.771-0.238,1.166c-0.023,0.148-0.041,0.297-0.051,0.439c-0.029,0.242-0.043,0.486-0.039,0.736v0.045      l-0.016,6.854l2.121-1.08c0.312,0.613,0.686,1.17,1.104,1.676c0.178,0.213,0.365,0.416,0.562,0.607      c0.396,0.391,0.826,0.738,1.277,1.043c2.033,1.369,4.582,1.865,7.023,1.297l0.006-0.004c0.244-0.062,0.492-0.129,0.738-0.215      l0.885-0.344l0.303-0.154c2.971-1.512,4.838-4.559,4.852-7.893l0.012-6.912l-0.002-1.486l0.006-1.43v-0.75v-0.494l0.002-0.314      l0.002-0.055l-0.002-0.334c0.066-1.43,0.369-2.783,0.982-3.98c0.234-0.469,0.52-0.912,0.857-1.328      c0.062-0.086,0.135-0.168,0.211-0.244c-0.047,0-0.088,0.006-0.141,0.01c0,0,0,0-0.006,0.002l-0.328,0.223l0.271-0.215      l0.922-0.736c0.004-0.01,0.004-0.01,0.01-0.012c0.006-0.004,0.014-0.016,0.021-0.02c0.012-0.006,0.014-0.016,0.025-0.021      c0.014-0.006,0.016-0.016,0.027-0.021c0.014-0.006,0.016-0.016,0.029-0.021c0.012-0.006,0.023-0.012,0.033-0.023      c0.264-0.219,0.555-0.422,0.861-0.615C200.846,105.941,200.51,106.105,199.963,106.383z M189.635,122.037      c-0.002-0.006-0.012-0.01-0.018-0.021l0.016-0.002L189.635,122.037z M196.814,113.439l0.027-0.174l0.08,0.127L196.814,113.439z       M197.535,107.793l0.018-0.146l0.188-0.096C197.668,107.633,197.602,107.713,197.535,107.793z"/>
				<polygon fill="#8EA54E" points="197.104,113.316 197.102,113.629 197.096,114.127 197.096,113.633 197.098,113.318     "/>
				<path fill="#8EA54E" d="M199.867,106.66c-0.184,0.162-0.369,0.34-0.523,0.502c-0.006,0.004-0.006,0.004-0.006,0.004      c-0.062,0.07-0.129,0.135-0.189,0.211c-0.047,0-0.088,0.006-0.141,0.01c0,0,0,0-0.006,0.002l-0.328,0.223l0.271-0.215      L199.867,106.66z"/>
				<polygon fill="#527C35" points="196.922,113.393 196.814,113.439 196.842,113.266     "/>
				<polygon fill="#527C35" points="197.104,113.316 197.102,113.629 197.096,114.127 197.096,113.633 197.098,113.318     "/>
				<path fill="#527C35" d="M199.867,106.66c-0.184,0.162-0.369,0.34-0.523,0.502c-0.006,0.004-0.006,0.004-0.006,0.004      c-0.062,0.07-0.129,0.135-0.189,0.211c-0.047,0-0.088,0.006-0.141,0.01c0,0,0,0-0.006,0.002l-0.328,0.223l0.271-0.215      L199.867,106.66z"/>
				<polygon fill="#8EA54E" points="196.922,113.393 196.814,113.439 196.842,113.266     "/>
				<polygon fill="#8EA54E" points="197.104,113.316 197.102,113.629 197.096,114.127 197.096,113.633 197.098,113.318     "/>
				<path fill="#8EA54E" d="M199.338,107.166c-0.062,0.07-0.129,0.135-0.189,0.211c-0.047,0-0.088,0.006-0.141,0.01L199.338,107.166      z"/>
				<path fill="#0E538C" d="M212.502,109.955l-15.41,7.838l-0.002-1.486l0.006-1.43v-0.75l0.006-0.498l0.002-0.312l-0.006,0.002      l0.002-0.055l-0.002-0.334c0.066-1.43,0.369-2.783,0.982-3.98c0.234-0.469,0.52-0.912,0.857-1.328      c0.062-0.086,0.135-0.168,0.211-0.244c0.061-0.076,0.127-0.141,0.189-0.211c0,0,0,0,0.006-0.004      c0.154-0.162,0.34-0.34,0.523-0.502c0.004-0.01,0.004-0.01,0.01-0.012c0.006-0.004,0.014-0.016,0.021-0.02      c0.012-0.006,0.014-0.016,0.025-0.021c0.014-0.006,0.016-0.016,0.027-0.021c0.014-0.006,0.016-0.016,0.029-0.021      c0.012-0.006,0.023-0.012,0.033-0.023c0.264-0.219,0.555-0.422,0.861-0.615C205.184,103.926,210.33,105.688,212.502,109.955z"/>
				<path fill="#598E2F" d="M198.945,107.396l-0.271,0.215l0.328-0.223C198.986,107.391,198.967,107.393,198.945,107.396z       M197.098,113.318l-0.002,0.314l0.006-0.004l0.002-0.312L197.098,113.318z"/>
			</g>
			<g>
				<path fill="#BDD992" d="M191.041,133.096l-0.938,0.361c0.066-0.049,0.127-0.094,0.193-0.143l0.006-0.004      C190.547,133.248,190.795,133.182,191.041,133.096z"/>
				<path fill="#BDD992" d="M189.633,122.014l0.002,0.023c-0.002-0.006-0.012-0.01-0.018-0.021L189.633,122.014z"/>
				<polygon fill="#BDD992" points="196.922,113.393 196.814,113.439 196.842,113.266     "/>
				<path fill="#BDD992" d="M195.131,108.855c-0.012,0.006-0.014,0.016-0.023,0.027l-0.006,0.004      c-0.344,0.182-0.695,0.359-1.055,0.537c-0.064,0.039-0.137,0.076-0.207,0.104c-0.963,0.49-1.951,0.992-2.906,1.471      c0.975-0.496,1.961-1.006,2.924-1.496l0.207-0.104C194.428,109.213,194.777,109.027,195.131,108.855z"/>
				<path fill="#BDD992" d="M197.74,107.551c-0.072,0.082-0.139,0.162-0.205,0.242l0.018-0.146L197.74,107.551z"/>
				<path fill="#BDD992" d="M199.867,106.66c-0.184,0.162-0.369,0.34-0.523,0.502c-0.006,0.004-0.006,0.004-0.006,0.004      c-0.062,0.07-0.129,0.135-0.189,0.211c-0.047,0-0.088,0.006-0.141,0.01c0,0,0,0-0.006,0.002l-0.328,0.223l0.271-0.215      L199.867,106.66z"/>
				<path fill="#598E2F" d="M191.041,133.096l-0.938,0.361c0.066-0.049,0.127-0.094,0.193-0.143l0.006-0.004      C190.547,133.248,190.795,133.182,191.041,133.096z"/>
				<path fill="#598E2F" d="M189.633,122.014l0.002,0.023c-0.002-0.006-0.012-0.01-0.018-0.021L189.633,122.014z"/>
				<path fill="#598E2F" d="M190.934,110.998c-1.482,0.762-2.932,1.498-4.162,2.139c-0.008-0.002-0.008-0.002-0.012,0.008      c0,0,0,0-0.006,0.002c-0.191,0.09-0.373,0.182-0.545,0.277c-0.01-0.002-0.01-0.002-0.014,0.006      c-0.799,0.408-1.49,0.76-2.008,1.031c-0.012-0.004-0.014,0.006-0.014,0.006l-1.055,0.537c0.186-0.133,0.385-0.248,0.584-0.352      c0,0,0.334-0.17,0.918-0.467l0.041-0.02c0.494-0.244,1.143-0.574,1.912-0.967c0.006-0.002,0.016-0.014,0.031-0.014      c0.111-0.051,0.209-0.1,0.314-0.162l0.018-0.008C188.1,112.432,189.484,111.734,190.934,110.998z"/>
				<path fill="#598E2F" d="M197.74,107.551c-0.072,0.082-0.139,0.162-0.205,0.242l0.018-0.146L197.74,107.551z"/>
				<path fill="#BDD992" d="M189.633,122.014l0.002,0.023c-0.002-0.006-0.012-0.01-0.018-0.021L189.633,122.014z"/>
			</g>
			<g>
				<g>
					<path fill="#527C35" d="M189.633,122.014l0.002,0.023c-0.002-0.006-0.012-0.01-0.018-0.021L189.633,122.014z"/>
					<path fill="#BDD992" d="M189.633,122.014l0.002,0.023c-0.002-0.006-0.012-0.01-0.018-0.021L189.633,122.014z"/>
					<path fill="#8EA54E" d="M189.633,122.014l0.002,0.023c-0.002-0.006-0.012-0.01-0.018-0.021L189.633,122.014z"/>
				</g>
			</g>
			<path fill="#6EAA42" d="M187.012,112.963c-0.012,0.006-0.027,0.021-0.039,0.027c-0.014,0.006-0.025,0.012-0.035,0.025     l-0.018,0.008c-0.051,0.035-0.1,0.074-0.148,0.113c-0.008-0.002-0.008-0.002-0.012,0.008c0,0,0,0-0.006,0.002     c-0.191,0.09-0.373,0.182-0.545,0.277c0.117-0.082,0.242-0.154,0.365-0.225c0.006-0.002,0.016-0.014,0.031-0.014     c0.057-0.037,0.117-0.068,0.184-0.102c0.059-0.037,0.119-0.068,0.18-0.1C186.969,112.984,186.986,112.975,187.012,112.963z"/>
			<path fill="#6EAA42" d="M194.076,109.377c-0.002,0.008-0.008,0.012-0.012,0.021c-0.006,0.002-0.016,0.014-0.018,0.025     c-0.064,0.039-0.137,0.076-0.207,0.104c0.004-0.01,0.016-0.016,0.018-0.025c0.004-0.008,0.016-0.016,0.02-0.023L194.076,109.377z     "/>
			<g>
				<g>
					<path fill="#0E538C" d="M191.926,132.752l-16.701,8.494c-4.363,2.221-9.705,0.48-11.928-3.891l17.033-8.664       c0.312,0.613,0.686,1.17,1.104,1.676c0.178,0.213,0.365,0.416,0.562,0.607c0.396,0.391,0.826,0.738,1.277,1.043       c2.033,1.369,4.582,1.865,7.023,1.297c-0.066,0.049-0.127,0.094-0.193,0.143l0.938-0.361       C191.336,132.998,191.635,132.885,191.926,132.752z"/>
					<path fill="#8EA54E" d="M191.041,133.096l-0.938,0.361c0.066-0.049,0.127-0.094,0.193-0.143l0.006-0.004       C190.547,133.248,190.795,133.182,191.041,133.096z"/>
				</g>
			</g>
			<g>
				<path fill="#8EA54E" d="M178.264,122.137c-0.029,0.242-0.043,0.486-0.039,0.736v0.045l-0.006,0.004      C178.215,122.656,178.229,122.398,178.264,122.137z"/>
				<polygon fill="#8EA54E" points="197.104,113.316 197.102,113.629 197.096,114.127 197.096,113.633 197.098,113.318     "/>
			</g>
		</g>
		<g>
			<g>
				<g>
					<path fill="#BDD992" d="M354.537,240.59l-0.1-0.045l0.031-0.025C354.494,240.545,354.514,240.57,354.537,240.59z"/>
					<path fill="#2A94F4" d="M392.787,231.484l-17.078-7.76l-0.018-0.012l-9.967,7.898l-1.227,0.967l-3.025,2.396l0.912,0.406       l1.1,0.5c-0.143,0.318-0.268,0.645-0.361,0.969c-0.188,0.6-0.295,1.213-0.326,1.82c-0.055,0.867,0.039,1.719,0.258,2.545v0.006       c0.568,2.133,2.012,4.014,4.107,5.078l0.162,0.074c0.082,0.037,0.162,0.068,0.25,0.1c0.338,0.145,0.689,0.264,1.045,0.346       c0.049,0.023,0.113,0.035,0.176,0.049c0.213,0.049,0.43,0.094,0.65,0.131c0.105,0.012,0.217,0.025,0.324,0.037       c0.068,0.008,0.131,0.014,0.188,0.02c0.031,0,0.068,0.006,0.094,0.006c0.049,0.006,0.088,0.006,0.113,0.006       c0.262,0.014,0.525,0.02,0.787,0c0.076,0,0.145-0.006,0.219-0.006c0.318-0.025,0.631-0.062,0.938-0.125       c1.062-0.199,2.082-0.619,2.996-1.238l2.713-2.15l15.131-11.986L392.787,231.484z M371.689,240.039h-0.006v-0.006h0.012       L371.689,240.039z"/>
					<polygon fill="#BDD992" points="371.695,240.033 371.689,240.039 371.684,240.039 371.684,240.033      "/>
					<path fill="#598E2F" d="M370.051,247.061c-0.113,0-0.27-0.006-0.469-0.031c-0.494-0.062-1.232-0.219-2.008-0.557       c0.338,0.145,0.689,0.264,1.045,0.346c0.049,0.023,0.113,0.035,0.176,0.049c0.213,0.049,0.43,0.094,0.65,0.131       c0.105,0.012,0.217,0.025,0.324,0.037c0.068,0.008,0.131,0.014,0.188,0.02C369.988,247.055,370.025,247.061,370.051,247.061z"/>
					<polygon fill="#598E2F" points="371.695,240.033 371.689,240.039 371.684,240.039 371.684,240.033      "/>
					<polygon fill="#BDD992" points="371.695,240.033 371.689,240.039 371.684,240.039 371.684,240.033      "/>
				</g>
				<g>
					<g>
						<polygon fill="#527C35" points="371.695,240.033 371.689,240.039 371.684,240.039 371.684,240.033       "/>
						<polygon fill="#8EA54E" points="371.695,240.033 371.689,240.039 371.684,240.039 371.684,240.033       "/>
					</g>
				</g>
			</g>
			<g>
				<g>
					<path fill="#8EA54E" d="M354.537,240.59l-0.1-0.045l0.031-0.025C354.494,240.545,354.514,240.57,354.537,240.59z"/>
					<path fill="#0E538C" d="M367.162,246.299l-3.045-1.377l-2.545-1.15l-0.383-0.174l-0.412-0.189l-1.051-0.469l-0.855-0.387       l-0.131-0.062l-0.506-0.225l-0.258-0.119l-0.381-0.176l-0.602-0.268l-1.65-0.746l-0.799-0.361l-0.008-0.006       c-0.023-0.02-0.043-0.045-0.068-0.07l-0.031,0.025l-0.443-0.199l-0.201-0.088c-0.006-0.006-0.006-0.006-0.012-0.014       l-0.957-0.424l-0.074-0.037l-0.939-0.426c-4.014-1.812-5.795-6.533-3.982-10.549l13.645,6.166l0.912,0.406l1.1,0.5       c-0.143,0.318-0.268,0.645-0.361,0.969c-0.188,0.6-0.295,1.213-0.326,1.82c-0.055,0.867,0.039,1.719,0.258,2.545v0.006       C363.623,243.354,365.066,245.234,367.162,246.299z"/>
					<path fill="#527C35" d="M353.793,240.258l-0.969-0.438l0.957,0.424C353.787,240.252,353.787,240.252,353.793,240.258z"/>
					<path fill="#527C35" d="M354.537,240.59l-0.1-0.045l0.031-0.025C354.494,240.545,354.514,240.57,354.537,240.59z"/>
					<path fill="#8EA54E" d="M354.537,240.59l-0.1-0.045l0.031-0.025C354.494,240.545,354.514,240.57,354.537,240.59z"/>
					<path fill="#598E2F" d="M354.537,240.59l-0.1-0.045l0.031-0.025C354.494,240.545,354.514,240.57,354.537,240.59z"/>
				</g>
			</g>
		</g>
		<g>
			<g>
				<g>
					<path fill="#BDD992" d="M164.926,204.135l0.102-0.043l-0.033-0.025C164.971,204.092,164.951,204.117,164.926,204.135z"/>
					<path fill="#2A94F4" d="M126.516,195.107l15.133,11.984l2.713,2.152c0.912,0.619,1.932,1.037,2.996,1.236       c0.307,0.064,0.617,0.102,0.936,0.127c0.076,0,0.145,0.006,0.221,0.006c0.262,0.02,0.525,0.014,0.787,0       c0.025,0,0.062,0,0.113-0.006c0.025,0,0.062-0.008,0.094-0.008c0.057-0.006,0.119-0.012,0.188-0.018       c0.105-0.012,0.219-0.025,0.324-0.037c0.219-0.037,0.438-0.082,0.65-0.131c0.062-0.014,0.125-0.025,0.176-0.051       c0.355-0.082,0.707-0.201,1.043-0.344c0.088-0.031,0.17-0.062,0.252-0.1l0.162-0.074c2.094-1.064,3.539-2.945,4.107-5.078       v-0.008c0.219-0.824,0.312-1.676,0.256-2.545c-0.031-0.605-0.137-1.219-0.324-1.818c-0.094-0.326-0.219-0.65-0.361-0.969       l1.098-0.5l0.914-0.406l-3.027-2.396l-1.225-0.969l-9.967-7.896l-0.02,0.012l-17.076,7.76L126.516,195.107z M147.77,203.578       h0.012v0.008h-0.006L147.77,203.578z"/>
					<polygon fill="#BDD992" points="147.77,203.578 147.775,203.586 147.781,203.586 147.781,203.578      "/>
					<path fill="#598E2F" d="M149.414,210.607c0.111,0,0.268-0.008,0.469-0.031c0.494-0.062,1.23-0.221,2.006-0.557       c-0.336,0.143-0.688,0.262-1.043,0.344c-0.051,0.025-0.113,0.037-0.176,0.051c-0.213,0.049-0.432,0.094-0.65,0.131       c-0.105,0.012-0.219,0.025-0.324,0.037c-0.068,0.006-0.131,0.012-0.188,0.018C149.477,210.6,149.439,210.607,149.414,210.607z"/>
					<polygon fill="#598E2F" points="147.77,203.578 147.775,203.586 147.781,203.586 147.781,203.578      "/>
					<polygon fill="#BDD992" points="147.77,203.578 147.775,203.586 147.781,203.586 147.781,203.578      "/>
				</g>
				<g>
					<g>
						<polygon fill="#527C35" points="147.77,203.578 147.775,203.586 147.781,203.586 147.781,203.578       "/>
						<polygon fill="#8EA54E" points="147.77,203.578 147.775,203.586 147.781,203.586 147.781,203.578       "/>
					</g>
				</g>
			</g>
			<g>
				<g>
					<path fill="#8EA54E" d="M164.926,204.135l0.102-0.043l-0.033-0.025C164.971,204.092,164.951,204.117,164.926,204.135z"/>
					<path fill="#0E538C" d="M152.303,209.846l3.045-1.377l2.545-1.15l0.381-0.176l0.412-0.188l1.051-0.469l0.857-0.387l0.131-0.062       l0.506-0.227l0.258-0.119l0.381-0.174l0.602-0.27l1.65-0.744l0.799-0.363l0.006-0.006c0.025-0.018,0.045-0.043,0.068-0.068       l0.033,0.025l0.443-0.199l0.199-0.088c0.006-0.006,0.006-0.006,0.014-0.014l0.955-0.424l0.076-0.039l0.938-0.424       c4.014-1.814,5.797-6.535,3.984-10.549l-13.645,6.166l-0.914,0.406l-1.098,0.5c0.143,0.318,0.268,0.643,0.361,0.969       c0.188,0.6,0.293,1.213,0.324,1.818c0.057,0.869-0.037,1.721-0.256,2.545v0.008C155.842,206.9,154.396,208.781,152.303,209.846       z"/>
					<path fill="#527C35" d="M165.67,203.805l0.969-0.438l-0.955,0.424C165.676,203.799,165.676,203.799,165.67,203.805z"/>
					<path fill="#527C35" d="M164.926,204.135l0.102-0.043l-0.033-0.025C164.971,204.092,164.951,204.117,164.926,204.135z"/>
					<path fill="#8EA54E" d="M164.926,204.135l0.102-0.043l-0.033-0.025C164.971,204.092,164.951,204.117,164.926,204.135z"/>
					<path fill="#598E2F" d="M164.926,204.135l0.102-0.043l-0.033-0.025C164.971,204.092,164.951,204.117,164.926,204.135z"/>
				</g>
			</g>
		</g>
		<g>
			<g>
				<g>
					<path fill="#0E538C" d="M318.584,134.383c0.986,0.195,1.914,0.447,2.775,0.766c1.947,0.705,3.553,1.715,4.672,3.195       c0.324,0.412,0.602,0.865,0.84,1.355c0.145,0.299,0.279,0.605,0.383,0.93c0.088,0.229,0.158,0.457,0.223,0.699       c0.014,0.031,0.018,0.068,0.023,0.098c0.006,0.031,0.02,0.068,0.025,0.1c0.061,0.787-0.061,1.941-0.428,3.053       c-0.812,2.512-2.557,4.275-4.646,5.479C322.088,148.566,320.066,140.381,318.584,134.383z"/>
					<path fill="#2A94F4" d="M291.875,111.23c0.164,0.65,5.166,20.963,5.373,21.801c6.014,0.463,12.168,0.281,17.363,0.773       c0.252,0.027,0.506,0.055,0.752,0.082c0.379,0.039,0.75,0.086,1.121,0.135c0.729,0.102,1.426,0.217,2.1,0.361       c0.986,0.195,1.914,0.447,2.775,0.766c1.947,0.705,3.553,1.715,4.672,3.195c0.324,0.412,0.602,0.865,0.84,1.355       c-0.033-0.24-0.072-0.504-0.127-0.775c0.176,0.389,0.314,0.799,0.443,1.238c-0.014-0.045-0.027-0.09-0.033-0.129       c-0.049-0.188-0.094-0.377-0.137-0.559c-0.008-0.008-0.008-0.023-0.014-0.037c-0.006-0.016-0.006-0.031-0.006-0.045       c-0.006-0.01-0.014-0.023-0.014-0.039c-0.029-0.137-0.068-0.271-0.1-0.408c-0.014-0.047-0.018-0.09-0.031-0.137       c-0.006-0.021-0.012-0.053-0.018-0.074c-0.008-0.016-0.008-0.023-0.006-0.039c-0.025-0.105-0.059-0.211-0.082-0.324       c-0.006-0.023-0.014-0.039-0.021-0.061c0.002-0.023-0.004-0.039-0.01-0.053c0-0.01,0-0.01,0-0.01       c-0.006-0.021-0.006-0.035-0.012-0.051c-0.045-0.182-0.09-0.363-0.133-0.545l-0.008-0.008       c-0.012-0.053-0.023-0.107-0.037-0.152c-0.006-0.016-0.006-0.029-0.014-0.045c0.002-0.014-0.006-0.031-0.006-0.037       c-0.006-0.023-0.012-0.047-0.012-0.061c-0.031-0.115-0.057-0.221-0.082-0.324c0.002-0.01,0.002-0.018-0.006-0.023       c0-0.008,0-0.008-0.006-0.018c0-0.014-0.006-0.037-0.012-0.059c-0.008-0.023-0.014-0.053-0.02-0.084c0,0,0,0-0.006-0.008       v-0.008c0-0.006,0-0.021-0.006-0.029c0-0.014-0.008-0.031-0.014-0.045c-0.004-0.053-0.018-0.105-0.039-0.152       c0.002-0.014,0.002-0.023-0.006-0.029c-0.012-0.053-0.023-0.105-0.037-0.152c0-0.008,0-0.008,0-0.008       c0.002-0.006,0.002-0.006,0.002-0.006c0-0.008,0-0.008-0.008-0.008l-0.018-0.092c0-0.006-0.008-0.016-0.008-0.016       c-0.006-0.029-0.012-0.059-0.018-0.082c-0.008-0.008-0.008-0.016-0.006-0.023c-0.008-0.029-0.014-0.053-0.02-0.074       c-0.006-0.023-0.014-0.039-0.021-0.055c0-0.006,0-0.006,0-0.006c0.002-0.01,0.002-0.01,0.002-0.01       c-0.008-0.014-0.014-0.029-0.014-0.045c0-0.006-0.006-0.016-0.006-0.023c-0.064-0.225-0.129-0.445-0.207-0.666       c0.029,0.023,0.062,0.1,0.102,0.215c-0.02-0.076-0.037-0.152-0.057-0.229c-0.025-0.098-0.045-0.188-0.068-0.279       c0-0.008-0.008-0.016-0.008-0.023c-0.006-0.029-0.012-0.061-0.018-0.084l-0.008-0.006c0-0.008,0-0.008,0-0.016       c0.002-0.014-0.006-0.029-0.006-0.037c-0.012-0.031-0.02-0.053-0.018-0.084l-0.006-0.008v-0.008       c-0.006-0.029-0.02-0.066-0.025-0.098s-0.012-0.061-0.02-0.084c-0.008-0.008-0.008-0.008-0.006-0.014       c0-0.008,0-0.016-0.008-0.023c0-0.008,0-0.008,0.002-0.016c-0.014-0.037-0.02-0.074-0.033-0.113       c0.002-0.014-0.004-0.037-0.012-0.053v-0.008c-0.008-0.008-0.006-0.016-0.006-0.021c-0.008-0.016-0.006-0.023-0.014-0.039       c0.002-0.014-0.006-0.029-0.006-0.037s-0.006-0.008-0.006-0.016c0-0.016-0.006-0.029-0.006-0.037       c-0.057-0.221-0.105-0.439-0.156-0.643c-0.008-0.016-0.006-0.031-0.014-0.047c-0.006-0.045-0.018-0.09-0.031-0.127       c-0.012-0.039-0.02-0.076-0.031-0.121c0-0.008,0-0.008-0.006-0.018c0-0.014-0.008-0.037-0.014-0.051c0,0,0,0,0-0.008       l0.002-0.016l-0.008-0.008c0,0,0,0,0-0.008s0-0.008-0.008-0.008c0,0,0,0,0.002-0.006c0,0,0-0.016-0.006-0.039c0,0,0,0,0-0.008       l-0.008-0.008c0-0.008,0-0.008,0-0.014c-0.006-0.008-0.006-0.008-0.006-0.008c0.002-0.023-0.012-0.053-0.025-0.107       c-0.006-0.014-0.006-0.029-0.012-0.045v-0.014c0,0,0,0-0.008-0.008c0-0.008,0.002-0.016-0.006-0.037       c0.002-0.008-0.006-0.018-0.006-0.023c0-0.008,0-0.008-0.006-0.016c0-0.008,0-0.016-0.006-0.037c0,0,0-0.008-0.008-0.016       l0.002-0.008c0,0,0-0.008-0.006-0.037c0,0,0-0.008-0.006-0.023c0-0.008-0.008-0.037-0.02-0.076       c-0.008-0.008-0.008-0.008-0.008-0.016c0.002-0.006-0.006-0.029-0.012-0.066c-0.006-0.008-0.006-0.008-0.006-0.016       s-0.006-0.037-0.02-0.082l0.002-0.01h-0.008c0,0,0,0,0-0.008c0-0.006,0-0.006,0-0.014l-0.006-0.01c0,0,0-0.006,0-0.014       c-0.006-0.014-0.014-0.031-0.014-0.045c-0.006-0.023-0.012-0.045-0.018-0.076c-0.008-0.008-0.008-0.008-0.008-0.014       c-0.006-0.023-0.012-0.039-0.012-0.061c0,0,0,0,0-0.008c-0.006-0.016-0.014-0.031-0.014-0.047       c-0.006-0.014-0.012-0.029-0.012-0.045c0,0,0,0,0-0.008h-0.006c0,0,0,0,0-0.008c0-0.006,0-0.014-0.008-0.021       c-0.018-0.084-0.035-0.174-0.061-0.266c0-0.008-0.008-0.016-0.006-0.029c0,0,0-0.008-0.008-0.016s-0.008-0.008-0.008-0.016       v-0.008c-0.006-0.029-0.012-0.068-0.023-0.105v-0.008h-0.008v-0.008c0.002-0.021-0.006-0.037-0.012-0.061v-0.008       c0.002-0.006,0.002-0.014-0.006-0.021v-0.008h-0.008c-0.006-0.008-0.006-0.016,0.002-0.023c0-0.006,0-0.006-0.006-0.014       c0,0-0.008-0.008-0.008-0.016c0,0,0,0,0-0.008c0,0,0,0,0.002-0.008c-0.008-0.023-0.008-0.045-0.02-0.068       c-0.021-0.053-0.033-0.105-0.037-0.158c0-0.008,0-0.016-0.008-0.021c0,0-0.006-0.01-0.006-0.018c0,0,0,0,0-0.006v-0.008       c0,0,0,0,0-0.008h-0.006c0,0,0,0,0-0.008v-0.008c-0.006-0.008-0.016-0.016-0.006-0.023v-0.006c0-0.008-0.008-0.008-0.008-0.016       c-0.008-0.008-0.014-0.016-0.006-0.023c-0.008-0.008-0.008-0.016-0.006-0.021v-0.016c0-0.008,0-0.008,0-0.008       c-0.006-0.008-0.014-0.008-0.006-0.016v-0.008c-0.008-0.006-0.008-0.006,0.002-0.014c-0.016-0.008-0.016-0.016-0.016-0.023       v-0.008c-0.006-0.008-0.014-0.016-0.006-0.023c0,0-0.006-0.008-0.006-0.014c-0.008-0.008-0.016-0.016-0.008-0.023l0.002-0.014       c0,0,0-0.008-0.008-0.008c0-0.008,0-0.008,0-0.016v-0.008c-0.033-0.076-0.045-0.152-0.057-0.219       c-0.006-0.008-0.006-0.008,0.002-0.016c0-0.008,0-0.008,0-0.008h-0.008c-0.027-0.068-0.037-0.137-0.051-0.197h0.008       c0.002-0.021-0.006-0.037-0.012-0.053c0-0.008,0.002-0.021-0.006-0.031c0,0,0-0.006,0-0.014       c-0.008-0.008-0.006-0.023-0.014-0.031c-0.006-0.014-0.014-0.037-0.02-0.053c0-0.006,0-0.006,0-0.006       c-0.008-0.008-0.008-0.008-0.006-0.016c0-0.008,0-0.008,0-0.016c0.002-0.014,0.002-0.023-0.006-0.031       c-0.008-0.006-0.008-0.014-0.008-0.014c0-0.008,0-0.008,0-0.008c0.002-0.008,0.002-0.016,0.002-0.016v-0.006l-0.008-0.002       c0-0.008,0-0.008,0-0.008c-0.006-0.008-0.006-0.008,0.002-0.014l-0.008-0.008c-0.006-0.008-0.006-0.016-0.006-0.023       c0-0.006-0.008-0.008-0.008-0.016l0.002-0.014c-0.008,0-0.008-0.008-0.008-0.008l0.002-0.029c0,0-0.008-0.002-0.008-0.01       c-0.006-0.021-0.012-0.045-0.012-0.066c-0.006-0.008-0.006-0.008-0.006-0.016c-0.014-0.023-0.02-0.053-0.02-0.076       c-0.006-0.008-0.006-0.008,0.002-0.014l-0.008-0.008c-0.008-0.008-0.006-0.023-0.006-0.031       c-0.008-0.008-0.006-0.023-0.006-0.037c-0.008-0.008-0.008-0.008-0.006-0.016c-0.008-0.008-0.008-0.023-0.014-0.031       c0-0.014-0.006-0.029-0.012-0.061c-0.008-0.014-0.008-0.031-0.006-0.045c-0.008-0.008-0.016-0.023-0.014-0.037       c-0.006-0.023-0.014-0.037-0.012-0.061c-0.016-0.023-0.021-0.037-0.02-0.061v-0.008c-0.008-0.016-0.014-0.039-0.014-0.053       c-0.006-0.008-0.006-0.016-0.006-0.023c-0.012-0.045-0.025-0.084-0.031-0.129c-0.006-0.014-0.006-0.021-0.014-0.037v-0.008       c-0.006-0.008-0.006-0.016-0.006-0.021c-0.006-0.023-0.012-0.047-0.012-0.061c-0.006-0.016-0.006-0.031-0.012-0.047       c0-0.008,0-0.008,0-0.008c-0.008-0.008-0.008-0.008-0.008-0.008c-0.006-0.008-0.006-0.008-0.006-0.014c0,0,0.008,0,0.008-0.008       v-0.008c0,0,0,0-0.008-0.008c0-0.008,0.002-0.014-0.006-0.021c0-0.016-0.006-0.031-0.006-0.047       c-0.006-0.029-0.012-0.051-0.02-0.074c-0.018-0.068-0.031-0.129-0.051-0.189c0.002-0.023-0.006-0.047-0.012-0.061       c0-0.008,0-0.016-0.006-0.021c0-0.023-0.006-0.039-0.014-0.055c0-0.008,0-0.008,0-0.008c-0.018-0.066-0.029-0.135-0.049-0.195       c0-0.008-0.008-0.023-0.006-0.031v-0.008c0-0.014-0.006-0.029-0.014-0.045c0.002-0.016-0.006-0.023-0.006-0.029       c0-0.008,0-0.008,0-0.008c-0.006-0.016-0.012-0.031-0.012-0.047c-0.008-0.006-0.006-0.014-0.006-0.014       c-0.01-0.008-0.008-0.016-0.008-0.016c-0.006-0.023-0.006-0.045-0.012-0.061c-0.006-0.031-0.012-0.061-0.02-0.09       c-0.012-0.039-0.025-0.084-0.031-0.121c-0.006-0.008-0.006-0.008-0.006-0.016s0-0.008,0-0.008h-0.008c0-0.008,0-0.008,0-0.008       c0.002-0.008,0.002-0.008,0.002-0.008c0-0.008,0-0.008,0-0.008c0-0.008-0.008-0.008-0.008-0.008c0-0.008,0-0.008-0.008-0.014       l0.002-0.008c0-0.008,0-0.016,0-0.016c0-0.008,0-0.016,0-0.016c-0.006-0.014-0.006-0.014-0.006-0.021       c-0.006-0.008-0.006-0.008-0.006-0.008v-0.008c0-0.008,0-0.008,0-0.008h-0.008c0-0.008,0-0.008,0-0.008l0.002-0.023       c0-0.006,0-0.014-0.008-0.014c-0.006-0.016-0.006-0.037-0.012-0.053l-0.008-0.008c-0.006-0.01-0.006-0.016-0.006-0.023       c0,0,0-0.006,0-0.016c-0.006,0-0.006-0.008-0.006-0.014c0,0,0,0,0-0.008c0.008,0,0.008,0.008,0.008,0.008       c-0.006-0.045-0.012-0.074-0.033-0.115c-0.006-0.014-0.012-0.029-0.012-0.051c-0.014-0.031-0.02-0.062-0.025-0.1       c-0.006-0.029-0.012-0.053-0.02-0.076c-0.006-0.021-0.014-0.037-0.012-0.053c-0.008-0.008-0.006-0.021-0.006-0.029       c-0.008-0.008-0.008-0.016-0.006-0.023c0-0.008,0-0.008,0-0.008l-0.008-0.008v-0.006c-0.014-0.023-0.02-0.055-0.018-0.076       c-0.014-0.031-0.02-0.061-0.02-0.082v-0.008l-0.006-0.008c-0.008-0.008-0.014-0.023-0.014-0.031       c-0.014-0.047-0.025-0.084-0.031-0.129c0-0.021-0.006-0.039-0.012-0.061h0.006c-0.006-0.008-0.006-0.008-0.006-0.016       s0-0.008-0.006-0.014c0-0.01,0-0.016-0.008-0.023l0.002-0.023c-0.016-0.008-0.016-0.016-0.014-0.029c0-0.008,0-0.008,0-0.008       c0-0.008,0-0.008,0.002-0.016c0-0.008-0.008-0.016-0.008-0.016v-0.006c-0.008-0.008-0.008-0.008-0.008-0.008       c-0.012-0.039-0.018-0.076-0.023-0.113h-0.008c0-0.008,0-0.016,0-0.016c-0.006-0.016-0.006-0.023-0.006-0.031       c-0.006-0.021-0.012-0.045-0.02-0.068c0.002-0.006-0.006-0.014-0.006-0.029l0.002-0.008h-0.008v-0.016       c0-0.006-0.006-0.014-0.006-0.021c0-0.016-0.006-0.029-0.014-0.047c0.002-0.014-0.006-0.021-0.012-0.037       c0.016,0.105,0.041,0.219,0.059,0.324c-0.006-0.021-0.014-0.053-0.025-0.084c0-0.008-0.008-0.016-0.008-0.021       c-0.012-0.076-0.021-0.152-0.025-0.219c0.008-0.008,0-0.008,0-0.016l-0.008-0.006c0-0.01,0.002-0.016-0.006-0.016       c0-0.016-0.008-0.023-0.006-0.031c-0.008-0.016-0.008-0.023-0.014-0.031c-0.006-0.045-0.02-0.082-0.018-0.119       c0,0,0.002-0.008,0.002-0.016c-0.008-0.008-0.008-0.008-0.008-0.016v-0.008c-0.006-0.006-0.006-0.006-0.006-0.014       s-0.008-0.016-0.006-0.023h0.008c0-0.029-0.006-0.053-0.02-0.084c0,0,0,0-0.008-0.006h-0.008l0.002-0.008       c0-0.008,0-0.008,0-0.016v-0.008c0,0-0.008,0-0.006-0.008c0-0.006-0.008-0.006-0.008-0.016       c-0.006-0.029-0.012-0.059-0.018-0.082c0,0,0,0,0-0.008v-0.008c-0.014-0.053-0.025-0.105-0.037-0.158       c-0.006-0.031-0.014-0.053-0.02-0.076c-0.006-0.016-0.006-0.029-0.012-0.045c0,0,0-0.008-0.008-0.016       c0.002-0.016-0.006-0.029-0.012-0.047c0-0.014,0-0.029-0.006-0.043c-0.006-0.031-0.012-0.055-0.02-0.076       c-0.008-0.016-0.006-0.037-0.012-0.053c-0.014-0.053-0.025-0.1-0.039-0.145c-0.006-0.021-0.012-0.045-0.012-0.061       c-0.014-0.029-0.02-0.045-0.02-0.074l-0.006-0.008c0,0,0,0-0.008-0.008c0,0,0.008-0.016-0.006-0.039l0.002-0.008       c0-0.014-0.008-0.029-0.014-0.045c0-0.008,0-0.008,0-0.016v-0.006l-0.006-0.002c0,0,0-0.006,0-0.014c0,0,0,0,0-0.008h-0.006       c0,0,0-0.008,0-0.016c0-0.006-0.008-0.016-0.008-0.021c-0.006-0.023-0.012-0.045-0.018-0.068v-0.008c0-0.008,0-0.008,0-0.016       l-0.008-0.008c0.002-0.006,0.002-0.016-0.006-0.021c-0.006-0.016-0.006-0.031-0.012-0.053c-0.006-0.039-0.02-0.07-0.025-0.107       c-0.008-0.006-0.008-0.014-0.008-0.023c0.002-0.006,0.002-0.006,0.002-0.006c-0.008-0.008-0.008-0.008-0.008-0.008       c0-0.008,0-0.008,0-0.008c0-0.008,0-0.008,0-0.008c-0.006-0.008-0.006-0.008-0.006-0.008c0-0.008,0-0.008,0-0.008v-0.008       c0-0.006,0-0.006,0-0.006l0.002-0.008c-0.008-0.008-0.008-0.008-0.008-0.008c-0.006-0.008-0.006-0.008-0.006-0.016       c-0.008-0.014-0.014-0.029-0.014-0.045c-0.004-0.053-0.018-0.105-0.029-0.16c0-0.014-0.006-0.029-0.014-0.045       c0-0.014,0.002-0.021-0.006-0.029c0.002-0.023-0.006-0.037-0.012-0.053c0-0.008-0.008-0.008-0.008-0.008       c0.002-0.029-0.004-0.053-0.012-0.076c-0.012-0.053-0.025-0.105-0.037-0.158c-0.033-0.098-0.059-0.205-0.076-0.303       c-0.006-0.008-0.006-0.023-0.006-0.031c-0.012-0.037-0.025-0.082-0.031-0.121c0-0.006-0.006-0.014-0.006-0.021       c-0.014-0.031-0.02-0.053-0.02-0.082l-0.006-0.01c0-0.008-0.008-0.008,0-0.014c-0.148-0.65-0.277-1.248-0.445-1.809       c-0.006-0.053-0.025-0.098-0.039-0.15c-0.012-0.055-0.023-0.1-0.037-0.145c-0.006-0.045-0.018-0.084-0.031-0.129       c0-0.008-0.006-0.023-0.006-0.029c-0.012-0.068-0.031-0.145-0.057-0.221c-0.094-0.377-0.164-0.68-0.221-0.898       c0,0,0.004,0.08,0.006,0.225c-0.406-1.217-0.945-2.318-1.873-3.447C314.865,109.838,301.441,110.371,291.875,111.23z        M320.049,127.422c-0.053-0.016-0.109-0.043-0.162-0.061c0,0,0.008,0,0.008-0.006       C319.945,127.381,319.996,127.406,320.049,127.422z M318.211,121.832c0,0-0.008,0-0.008,0.016       c-0.008-0.008-0.006-0.023-0.006-0.031C318.203,121.824,318.211,121.824,318.211,121.832z"/>
				</g>
			</g>
		</g>
		<g>
			<path fill="#FFFFFF" d="M272.738,157.996c-0.277,0.053-0.662,0.098-1.139,0.133c-4.678,0.348-18.021,0.213-22.375,6.176     c-0.125,0.162-0.23,0.33-0.34,0.5c-5.309,1.777-14.041,0.789-19.266-0.072c-2.602-0.428-4.332-0.818-4.332-0.818     c-0.254-1.184-6.67-16-14.619-20.143c-0.377-0.506-0.57-1.021-0.615-1.512c-0.309-3.555,7.209-6.461,12.158-4.123     c5.639,2.666,7.945,2.373,10.771,1.779c2.822-0.588,6.67-6.518,11.795-4.447c5.133,2.08,10.002,9.484,10.002,9.484     s11.289,0.598,15.389,5.043C274.277,154.439,275.816,157.4,272.738,157.996z"/>
			<path fill="#0B4870" d="M220.338,171.82c0,0-2.799-7.004,5.129-12.799c7.928-5.793,20.754-3.621,24.482,4.105     c3.732,7.727,2.1,10.865,2.1,10.865L220.338,171.82z"/>
			<path fill="#FFFFFF" d="M288.238,232.076c-1.262-1.885,0.492-14.133,0.209-16.854c-0.645-6.275-2.156-12.393-4.707-18     c-6.445-14.186-18.301-24.943-31.572-29.541c-1.064-0.371-2.146-0.701-3.234-0.984c-1.805-0.48-3.643-0.846-5.479-1.086     c-1.896-0.252-3.805-0.365-5.711-0.352c-7.352-0.117-14.73,1.779-21.529,6.113c-9.689,6.178-18.824,16.453-22.018,29.129     c-2.387,9.457-3.975,20.924-2.756,30.621c0,0-18.303,17.148-13.279,26.953c2.85,5.557,16.207,11.244,32.543,14.605     c9.408,1.938,19.803,3.1,29.746,3.021c3.559,0.002,7.066-0.148,10.455-0.48c29.074-2.863,44.08-7.389,47.385-15.93     c0.404-1.049,0.586-2.213,0.576-3.477C298.816,248.922,293.09,239.328,288.238,232.076z"/>
		</g>
		<g>
			<path fill="#F2F2F2" d="M343.568,214.369c-0.889-0.311-1.959-0.76-3.148-1.26c-4.5-1.9-10.75-4.6-15.98-3.4     c-1.189,0.271-2.32,0.74-3.371,1.461c-0.479-0.5-0.988-0.99-1.52-1.461c0,0-3.93-3.65-10.66-5.979     c-1.09-1.951-1.129-3.4-1.129-3.4s0.74-1.131,1.799-2.861c2.791-4.559,7.771-13.318,7.25-16.77     c2.531-1.59,6.871,3.951,6.871,6.93c3.98,1.391,9.77,3.76,10.311,7.131c0.539,3.369,0.18,5.74,0.18,5.74     S343.029,204.459,343.568,214.369z"/>
			<path fill="#0B4870" d="M324.529,215.41c-1-1.49-2.15-2.91-3.461-4.24c-0.479-0.5-0.988-0.99-1.52-1.461     c0,0-3.93-3.65-10.66-5.979c-3.699-1.281-8.24-2.15-13.449-1.791c2.77-2.561,7.199-5.881,11.779-5.01     c0.771,0.15,1.561,0.33,2.34,0.539c6.551,1.791,13.182,5.762,14.48,10.361c0.18,0.629,0.311,1.26,0.4,1.879     C324.789,211.85,324.709,213.879,324.529,215.41z"/>
			<path fill="#F2F2F2" d="M330.779,247.049h-1.68v-5.41h-27.27v4.801h2.76v0.609h-0.061v4.551h-4.061v4.801h2.76v0.609h-0.059     v4.799h25c-0.031,0.141-0.07,0.271-0.102,0.391h-21.35V267h2.76v0.609h-0.059v4.76h-6.24v4.801h2.76v0.609h-0.061v0.26     c-23.73,0.961-57.92,0.42-59.619-3.76c-1.871-4.6,6.75-11.629,6.75-11.629s-0.67-2.621-0.6-12.512     c1.059-18.898,16.26-41.299,35.309-46.818c2.701-0.781,5.281-1.221,7.721-1.381c5.209-0.359,9.75,0.51,13.449,1.791     c6.73,2.328,10.66,5.979,10.66,5.979c0.531,0.471,1.041,0.961,1.52,1.461c1.311,1.33,2.461,2.75,3.461,4.24     C330.949,224.91,331.66,237.199,330.779,247.049z"/>
			<path fill="#F2F2F2" d="M330.209,251.85c-0.27,1.891-0.59,3.619-0.9,5.16h-1.568v-5.16H330.209z"/>
		</g>
		<g>
			<rect x="168.623" y="228.619" fill="#00aef0" width="24.51" height="0.611"/>
			<g>
				<g>
					<rect x="173.254" y="223.82" opacity="0.7" fill="#00aef0" width="12.49" height="4.799"/>
					<rect x="185.744" y="223.82" opacity="0.9" fill="#00aef0" width="7.389" height="4.799"/>
					<rect x="165.924" y="223.82" opacity="0.3" fill="#00aef0" width="7.33" height="4.799"/>
					<rect x="165.863" y="223.82" fill="#FFEE59" width="0.061" height="4.799"/>
				</g>
			</g>
			<g>
				<rect x="188.443" y="229.23" opacity="0.9" fill="#00aef0" width="7.4" height="4.799"/>
				<rect x="175.963" y="229.23" opacity="0.7" fill="#00aef0" width="12.48" height="4.799"/>
				<rect x="168.623" y="229.23" opacity="0.3" fill="#00aef0" width="7.34" height="4.799"/>
				<rect x="168.564" y="229.23" fill="#FFEE59" width="0.059" height="4.799"/>
			</g>
		</g>
		<g>
			<g>
				<rect x="304.588" y="246.439" fill="#00aef0" width="24.51" height="0.609"/>
				<g>
					<g>
						<rect x="309.219" y="241.639" opacity="0.7" fill="#00aef0" width="12.49" height="4.801"/>
						<rect x="321.709" y="241.639" opacity="0.9" fill="#00aef0" width="7.389" height="4.801"/>
						<rect x="301.889" y="241.639" opacity="0.3" fill="#00aef0" width="7.33" height="4.801"/>
						<rect x="301.828" y="241.639" fill="#FFEE59" width="0.061" height="4.801"/>
					</g>
				</g>
				<g>
					<rect x="324.408" y="247.049" opacity="0.9" fill="#00aef0" width="7.4" height="4.801"/>
					<rect x="311.926" y="247.051" opacity="0.7" fill="#00aef0" width="12.48" height="4.801"/>
					<rect x="304.586" y="247.051" opacity="0.3" fill="#00aef0" width="7.34" height="4.801"/>
					<rect x="304.529" y="247.049" fill="#FFEE59" width="0.059" height="4.801"/>
				</g>
			</g>
			<g>
				<rect x="303.229" y="256.4" fill="#00aef0" width="24.51" height="0.609"/>
				<g>
					<g>
						<rect x="307.859" y="251.604" opacity="0.7" fill="#00aef0" width="12.49" height="4.799"/>
						<rect x="320.348" y="251.6" opacity="0.9" fill="#00aef0" width="7.391" height="4.801"/>
						<rect x="300.529" y="251.6" opacity="0.3" fill="#00aef0" width="7.328" height="4.801"/>
						<rect x="300.469" y="251.6" fill="#FFEE59" width="0.061" height="4.801"/>
					</g>
				</g>
				<g>
					<rect x="323.049" y="257.01" opacity="0.9" fill="#00aef0" width="7.4" height="4.799"/>
					<rect x="310.568" y="257.01" opacity="0.7" fill="#00aef0" width="12.48" height="4.799"/>
					<rect x="303.229" y="257.01" opacity="0.3" fill="#00aef0" width="7.34" height="4.799"/>
					<rect x="303.168" y="257.01" fill="#FFEE59" width="0.061" height="4.799"/>
				</g>
			</g>
			<g>
				<rect x="309.479" y="267" fill="#00aef0" width="24.51" height="0.609"/>
				<g>
					<g>
						<rect x="314.107" y="262.199" opacity="0.7" fill="#00aef0" width="12.49" height="4.801"/>
						<rect x="326.598" y="262.199" opacity="0.9" fill="#00aef0" width="7.391" height="4.801"/>
						<rect x="306.779" y="262.199" opacity="0.3" fill="#00aef0" width="7.328" height="4.801"/>
						<rect x="306.719" y="262.199" fill="#FFEE59" width="0.061" height="4.801"/>
					</g>
				</g>
				<g>
					<rect x="329.299" y="267.609" opacity="0.9" fill="#00aef0" width="7.4" height="4.801"/>
					<rect x="316.816" y="267.607" opacity="0.7" fill="#00aef0" width="12.48" height="4.801"/>
					<rect x="309.477" y="267.607" opacity="0.3" fill="#00aef0" width="7.34" height="4.801"/>
					<rect x="309.418" y="267.609" fill="#FFEE59" width="0.061" height="4.801"/>
				</g>
			</g>
			<g>
				<rect x="305.938" y="277.17" fill="#00aef0" width="24.512" height="0.609"/>
				<g>
					<g>
						<rect x="310.564" y="272.369" opacity="0.7" fill="#00aef0" width="12.49" height="4.801"/>
						<rect x="323.059" y="272.369" opacity="0.9" fill="#00aef0" width="7.391" height="4.801"/>
						<rect x="303.238" y="272.369" opacity="0.3" fill="#00aef0" width="7.33" height="4.801"/>
						<rect x="303.178" y="272.369" fill="#FFEE59" width="0.061" height="4.801"/>
					</g>
				</g>
				<g>
					<rect x="325.758" y="277.779" opacity="0.9" fill="#00aef0" width="7.4" height="4.801"/>
					<rect x="313.279" y="277.779" opacity="0.7" fill="#00aef0" width="12.479" height="4.801"/>
					<rect x="305.938" y="277.779" opacity="0.3" fill="#00aef0" width="7.342" height="4.801"/>
					<rect x="305.879" y="277.779" fill="#FFEE59" width="0.059" height="4.801"/>
				</g>
			</g>
		</g>
		<g>
			<path fill="#00aef0" d="M238.197,241.463c-3.83,0.236-7.098-0.129-9.807-1.098c-2.711-0.965-5.068-2.508-7.078-4.625l4.523-6.873     c1.152,1.719,2.73,3.031,4.734,3.939c2.002,0.91,4.234,1.375,6.697,1.4l-1.219-9.51c-2.994-0.209-5.551-0.561-7.67-1.053     c-2.119-0.49-3.957-1.432-5.514-2.822c-1.555-1.391-2.502-3.398-2.838-6.025c-0.428-3.338,0.494-6.316,2.766-8.939     c2.271-2.621,5.652-4.434,10.146-5.434l-0.721-5.631l6.066-0.777l0.721,5.631c3.535-0.199,6.498,0.176,8.889,1.119     c2.387,0.945,4.643,2.426,6.768,4.441l-4.549,6.688c-1.414-1.768-2.934-3.047-4.561-3.834s-3.496-1.152-5.609-1.094l1.26,9.822     c2.91,0.221,5.418,0.6,7.521,1.135s3.934,1.52,5.496,2.951c1.561,1.432,2.514,3.482,2.855,6.152     c0.428,3.336-0.539,6.215-2.9,8.637c-2.359,2.422-5.664,4.096-9.912,5.021l0.723,5.631l-6.068,0.777L238.197,241.463z      M233.9,207.932c-1.512,0.447-2.637,1.1-3.373,1.959c-0.738,0.857-1.031,1.871-0.883,3.037c0.135,1.043,0.656,1.812,1.568,2.311     c0.91,0.498,2.164,0.857,3.762,1.076L233.9,207.932z M247.496,228.699c-0.139-1.084-0.643-1.879-1.512-2.383     c-0.869-0.502-2.104-0.861-3.699-1.082l1.033,8.07C246.389,232.443,247.779,230.91,247.496,228.699z"/>
		</g>
		<g>
			<path fill="#00aef0" d="M284.234,256.773c-2.736-0.83-4.93-1.936-6.572-3.316c-1.643-1.379-2.893-3.068-3.744-5.072l4.947-3.631     c0.361,1.502,1.121,2.83,2.285,3.984c1.164,1.158,2.605,2.062,4.32,2.719l1.619-6.965c-2.041-0.926-3.736-1.834-5.09-2.729     s-2.395-2.029-3.119-3.406c-0.727-1.377-0.867-3.027-0.42-4.951c0.568-2.443,1.986-4.287,4.258-5.531     c2.27-1.242,5.104-1.631,8.504-1.162l0.959-4.123l4.447,1.033l-0.959,4.123c2.521,0.781,4.496,1.811,5.922,3.092     c1.424,1.281,2.617,2.902,3.576,4.865l-4.916,3.492c-0.531-1.602-1.262-2.893-2.193-3.865s-2.145-1.715-3.635-2.223l-1.674,7.193     c1.979,0.912,3.631,1.828,4.963,2.75c1.332,0.92,2.357,2.084,3.076,3.492c0.719,1.406,0.854,3.088,0.398,5.043     c-0.568,2.443-1.992,4.207-4.273,5.285c-2.277,1.08-5.025,1.393-8.234,0.936l-0.959,4.125l-4.445-1.035L284.234,256.773z      M289.943,232.211c-1.172-0.078-2.129,0.084-2.867,0.494c-0.738,0.408-1.207,1.039-1.406,1.895     c-0.176,0.764-0.012,1.438,0.496,2.021c0.508,0.586,1.293,1.164,2.352,1.73L289.943,232.211z M294.055,250.266     c0.186-0.795,0.039-1.48-0.438-2.057c-0.48-0.578-1.246-1.152-2.305-1.721l-1.375,5.91     C292.305,252.596,293.68,251.885,294.055,250.266z"/>
		</g>
		<g>
			<g>
				<rect x="181.27" y="247.754" fill="#0E538C" width="48.428" height="1.213"/>
				<rect x="156.488" y="247.754" fill="#2A94F4" width="24.781" height="1.213"/>
				<rect x="181.27" y="241.498" fill="#0E538C" width="48.428" height="2.496"/>
				<rect x="156.486" y="241.498" fill="#2A94F4" width="24.783" height="2.496"/>
				<rect x="181.27" y="243.994" fill="#0B4870" width="48.428" height="0.537"/>
				<rect x="156.486" y="243.994" fill="#0B4870" width="24.783" height="0.537"/>
				<rect x="156.486" y="244.531" fill="#2A94F4" width="24.783" height="2.684"/>
				<rect x="181.27" y="244.531" fill="#0E538C" width="48.428" height="2.684"/>
				<rect x="156.487" y="247.215" fill="#0B4870" width="24.783" height="0.539"/>
				<rect x="181.27" y="247.215" fill="#0B4870" width="48.428" height="0.539"/>
			</g>
			<g>
				<rect x="201.676" y="241.498" fill="#D3D3D3" width="11.969" height="7.469"/>
				<rect x="201.676" y="241.498" fill="#F2F2F2" width="2.158" height="7.469"/>
				<rect x="211.488" y="241.498" fill="#F2F2F2" width="2.156" height="7.469"/>
			</g>
		</g>
		<g>
			<g>
				<polygon fill="#0E538C" points="162.49,234.031 162.49,236.525 162.49,237.064 162.49,239.748 162.49,240.285 162.49,241.498       187.273,241.498 187.273,240.285 187.273,239.748 187.273,237.064 187.273,236.527 187.273,235.279 187.273,234.031     "/>
				<polygon fill="#0B4870" points="235.701,237.064 235.701,236.527 235.701,234.031 187.273,234.031 187.273,236.527       187.273,237.064 187.273,238.869 187.273,239.748 187.273,240.285 187.273,241.498 235.701,241.498 235.701,240.285       235.701,239.748     "/>
				<path fill="#0B4870" d="M228.207,216.891c0,10.205-8.303,18.506-18.508,18.506v-1.244c9.52,0,17.264-7.742,17.264-17.262      H228.207z"/>
			</g>
			<g>
				<rect x="197.711" y="234.031" fill="#D3D3D3" width="11.971" height="7.467"/>
				<rect x="197.711" y="234.031" fill="#F2F2F2" width="2.158" height="7.467"/>
				<rect x="207.521" y="234.031" fill="#F2F2F2" width="2.16" height="7.467"/>
			</g>
		</g>
		<g>
			<g>
				<g>
					<rect x="193.008" y="275.982" fill="#0E538C" width="48.428" height="1.074"/>
					<rect x="193.008" y="277.594" fill="#0E538C" width="48.428" height="1.213"/>
					<rect x="168.227" y="277.594" fill="#2A94F4" width="24.781" height="1.213"/>
					<rect x="168.227" y="275.982" fill="#2A94F4" width="24.781" height="1.074"/>
					<rect x="193.008" y="271.338" fill="#0E538C" width="48.428" height="4.105"/>
					<polygon fill="#2A94F4" points="168.227,271.338 168.227,272.225 168.227,272.764 168.227,273.834 168.227,274.373        168.227,275.443 193.008,275.443 193.008,271.338      "/>
					<rect x="168.227" y="275.443" fill="#0B4870" width="24.781" height="0.539"/>
					<rect x="193.008" y="275.443" fill="#0B4870" width="48.428" height="0.539"/>
					<rect x="168.227" y="277.057" fill="#0B4870" width="24.781" height="0.537"/>
					<rect x="193.008" y="277.057" fill="#0B4870" width="48.428" height="0.537"/>
				</g>
				<g>
					<rect x="213.414" y="271.338" fill="#D3D3D3" width="11.971" height="7.469"/>
					<rect x="213.414" y="271.338" fill="#F2F2F2" width="2.158" height="7.469"/>
					<rect x="223.227" y="271.338" fill="#F2F2F2" width="2.158" height="7.469"/>
				</g>
			</g>
			<g>
				<g>
					<rect x="163.6" y="263.871" fill="#0E538C" width="24.783" height="7.467"/>
					<rect x="188.383" y="263.871" fill="#0B4870" width="48.428" height="7.467"/>
				</g>
				<g>
					<rect x="208.789" y="263.871" fill="#D3D3D3" width="11.971" height="7.467"/>
					<rect x="208.789" y="263.871" fill="#F2F2F2" width="2.158" height="7.467"/>
					<rect x="218.602" y="263.871" fill="#F2F2F2" width="2.158" height="7.467"/>
				</g>
			</g>
			<g>
				<g>
					<rect x="188.383" y="261.086" fill="#0E538C" width="48.428" height="1.074"/>
					<rect x="188.383" y="262.697" fill="#0E538C" width="48.428" height="1.213"/>
					<rect x="163.6" y="262.697" fill="#2A94F4" width="24.783" height="1.213"/>
					<rect x="163.6" y="261.086" fill="#2A94F4" width="24.783" height="1.074"/>
					<rect x="188.383" y="256.441" fill="#0E538C" width="48.428" height="4.105"/>
					<polygon fill="#2A94F4" points="163.6,256.441 163.6,257.328 163.6,257.865 163.6,258.939 163.6,259.477 163.6,260.547        188.383,260.547 188.383,256.441      "/>
					<rect x="163.6" y="260.547" fill="#0B4870" width="24.783" height="0.539"/>
					<rect x="188.383" y="260.547" fill="#0B4870" width="48.428" height="0.539"/>
					<rect x="163.6" y="262.16" fill="#0B4870" width="24.783" height="0.537"/>
					<rect x="188.383" y="262.16" fill="#0B4870" width="48.428" height="0.537"/>
				</g>
				<g>
					<rect x="208.789" y="256.441" fill="#D3D3D3" width="11.971" height="7.469"/>
					<rect x="208.789" y="256.441" fill="#F2F2F2" width="2.158" height="7.469"/>
					<rect x="218.602" y="256.441" fill="#F2F2F2" width="2.158" height="7.469"/>
				</g>
			</g>
			<g>
				<g>
					<rect x="163.586" y="248.975" fill="#0E538C" width="24.781" height="7.467"/>
					<rect x="188.367" y="248.975" fill="#0B4870" width="48.428" height="7.467"/>
				</g>
				<g>
					<rect x="208.773" y="248.975" fill="#D3D3D3" width="11.969" height="7.467"/>
					<rect x="208.773" y="248.975" fill="#F2F2F2" width="2.158" height="7.467"/>
					<rect x="218.584" y="248.975" fill="#F2F2F2" width="2.158" height="7.467"/>
				</g>
			</g>
		</g>
	</g>
</g>
</svg>