<svg xmlns="http://www.w3.org/2000/svg" xmlns:xlink="http://www.w3.org/1999/xlink" viewBox="0 0 625.02 625.02"><defs xmlns="http://www.w3.org/2000/svg"><style>.cls-1{opacity:0.15;fill:url(#linear-gradient);}.cls-2{fill:#2a94f4;}</style><linearGradient id="linear-gradient" x1="541.36" y1="673.32" x2="244.57" y2="159.27" gradientUnits="userSpaceOnUse"><stop offset="0" stop-color="#43aced" stop-opacity="0"/><stop offset="1" stop-color="#231f20"/></linearGradient></defs><title xmlns="http://www.w3.org/2000/svg">Multimedia Icons</title><g xmlns="http://www.w3.org/2000/svg" id="Layer_2" data-name="Layer 2"><path class="cls-1" d="M157.52,457.52,347.74,625H625V369.19L355,136.54s-68.33-9.8-86.37,10.06-37.79,89.31-22,121.49,19.74,44.42,19.74,44.42-8,30.64-37.1,41.36-72.55,10.19-71.76,103.65"/></g><g xmlns="http://www.w3.org/2000/svg" id="Layer_1" data-name="Layer 1"><path class="cls-2" d="M311.16,327h2.47c22.68-.38,41-8.36,54.57-23.6,29.8-33.6,24.85-91.18,24.3-96.68-1.93-41.25-21.44-61-37.53-70.2-12-6.89-26-10.6-41.65-10.91H312c-8.59,0-25.47,1.39-41.64,10.6s-36.07,29-38,70.51c-.54,5.5-5.49,63.08,24.31,96.68,13.46,15.24,31.81,23.22,54.49,23.6ZM253,208.68c0-.23.08-.47.08-.62,2.55-55.5,41.95-61.46,58.82-61.46h.93c20.9.47,56.42,9,58.82,61.46a1.48,1.48,0,0,0,.08.62c.08.54,5.5,53.17-19.12,80.88-9.75,11-22.75,16.41-39.86,16.56H312c-17-.15-30.11-5.57-39.79-16.56C247.69,262,253,209.14,253,208.68Zm0,0"/><path class="cls-2" d="M471.45,422.53v-.23c0-.62-.08-1.24-.08-1.93-.46-15.33-1.47-51.16-35.06-62.62-.23-.08-.54-.15-.77-.23-34.91-8.9-63.93-29-64.24-29.26a10.45,10.45,0,0,0-12,17.11c1.32.92,32.12,22.36,70.67,32.27,18,6.43,20,25.7,20.58,43.35a15,15,0,0,0,.08,1.93c.08,7-.39,17.73-1.62,23.92-12.54,7.12-61.69,31.74-136.46,31.74-74.46,0-123.92-24.7-136.53-31.82-1.25-6.19-1.79-16.95-1.63-23.92,0-.61.08-1.23.08-1.93C175,403.26,177,384,195.05,377.56c38.55-9.9,69.36-31.42,70.67-32.27a10.45,10.45,0,0,0-12-17.11c-.31.24-29.18,20.36-64.25,29.26-.31.08-.54.16-.77.23-33.6,11.54-34.6,47.37-35.06,62.62a15.1,15.1,0,0,1-.08,1.94v.23c-.08,4-.16,24.69,4,35.06a9.9,9.9,0,0,0,4,4.88c2.32,1.55,58,37,151.09,37s148.76-35.52,151.08-37a10.42,10.42,0,0,0,4-4.88c3.87-10.3,3.79-31,3.71-35Zm0,0"/></g></svg>