<svg xmlns="http://www.w3.org/2000/svg" xmlns:xlink="http://www.w3.org/1999/xlink" version="1.1" id="Слой_1" x="0px" y="0px" viewBox="0 0 2800 2000" style="enable-background:new 0 0 2800 2000;" xml:space="preserve">
<style xmlns="http://www.w3.org/2000/svg" type="text/css">
	.st0{fill:#2C2858;}
	.st1{fill:#2993F7;}
	.st2{fill:#FCAD56;}
	.st3{fill:#227cd0;}
	.st4{fill:#FAEE6C;}
	.st5{fill:#FFFFFF;}
	.st6{fill:#CCE9FF;}
	.st7{fill:#0E538B;}
	.st8{fill:#D2D2D2;}
	.st9{fill:#D3D3D3;}
	.st10{fill:#FAC832;}
</style>
<path xmlns="http://www.w3.org/2000/svg" class="st0" d="M1044.5,1874.5l-393.5,0.2c-62.1,0-112.4-50.2-112.4-112.3l-0.6-962.9c0-62.1,50.2-112.4,112.3-112.4l393.5-0.2  c62.1,0,112.4,50.2,112.4,112.3l0.6,962.9C1156.8,1824.1,1106.5,1874.4,1044.5,1874.5z"/>
<path xmlns="http://www.w3.org/2000/svg" class="st1" d="M1048.5,1855.2l-401.6,0.3c-43.6,0-79-35.3-79.1-79l-0.6-984c0-43.6,35.3-79,79-79.1l401.6-0.3  c43.6,0,79,35.3,79.1,79l0.6,984C1127.5,1819.8,1092.2,1855.2,1048.5,1855.2z"/>
<path xmlns="http://www.w3.org/2000/svg" class="st0" d="M534.3,1001.9L534.3,1001.9c-9.7,0-17.5-7.9-17.5-17.5v-90.9c0-9.7,7.9-17.5,17.5-17.5l0,0  c9.7,0,17.5,7.8,17.5,17.5v90.9C551.8,994,544,1001.9,534.3,1001.9z"/>
<path xmlns="http://www.w3.org/2000/svg" class="st0" d="M1159.5,1001.9L1159.5,1001.9c-9.7,0-17.5-7.9-17.5-17.5v-90.9c0-9.7,7.9-17.5,17.5-17.5l0,0  c9.7,0,17.5,7.8,17.5,17.5v90.9C1177.1,994,1169.2,1001.9,1159.5,1001.9z"/>
<g xmlns="http://www.w3.org/2000/svg">
	<path class="st0" d="M2109.3,1874.5l-393.5,0.2c-62.1,0-112.4-50.2-112.4-112.3l-0.6-962.9c0-62.1,50.2-112.4,112.3-112.4   l393.5-0.2c62.1,0,112.4,50.2,112.4,112.3l0.6,962.9C2221.7,1824.1,2171.4,1874.4,2109.3,1874.5z"/>
	<path class="st1" d="M2113.4,1855.2l-401.6,0.3c-43.6,0-79-35.3-79.1-79l-0.6-984c0-43.6,35.3-79,79-79.1l401.6-0.3   c43.6,0,79,35.3,79.1,79l0.6,984C2192.4,1819.8,2157,1855.2,2113.4,1855.2z"/>
	<path class="st0" d="M1599.2,1001.9L1599.2,1001.9c-9.7,0-17.5-7.9-17.5-17.5v-90.9c0-9.7,7.8-17.5,17.5-17.5l0,0   c9.7,0,17.5,7.8,17.5,17.5v90.9C1616.7,994,1608.8,1001.9,1599.2,1001.9z"/>
	<path class="st0" d="M2224.4,1001.9L2224.4,1001.9c-9.7,0-17.5-7.9-17.5-17.5v-90.9c0-9.7,7.9-17.5,17.5-17.5l0,0   c9.7,0,17.5,7.8,17.5,17.5v90.9C2241.9,994,2234.1,1001.9,2224.4,1001.9z"/>
	<path class="st0" d="M1599.2,1136.4L1599.2,1136.4c-9.7,0-17.5-7.8-17.5-17.5v-90.9c0-9.7,7.8-17.5,17.5-17.5l0,0   c9.7,0,17.5,7.8,17.5,17.5v90.9C1616.7,1128.5,1608.8,1136.4,1599.2,1136.4z"/>
</g>
<g xmlns="http://www.w3.org/2000/svg">
	<path class="st2" d="M934.5,574.1c-20.2,46.1-74,67.2-120.1,47c-46.1-20.2-67.2-74-47-120.1c20.2-46.1,74-67.2,120.1-47   C933.7,474.2,954.7,527.9,934.5,574.1z"/>
	<path class="st3" d="M919.6,567.5c-18,42.3-71.8,58-109.8,32.5c-24.2-15.8-37.4-45.2-32.8-74c7.1-48.6,60.3-77,104.1-57.2   C918.2,484.8,936.4,529.8,919.6,567.5z"/>
	<g>
		<path class="st2" d="M845.8,600.5l0-15.5c-8.9-0.1-18.1-2.9-23.5-6.7l3.7-10.3c5.5,3.7,13.5,6.6,22.1,6.5    c10.9,0,18.3-6.3,18.2-15.1c0-8.4-6-13.6-17.4-18.2c-15.7-6.1-25.4-13.1-25.4-26.5c0-12.7,9-22.4,23.1-24.8l0-15.5l9.5,0l0,14.9    c9.2,0.3,15.5,2.7,20,5.3l-3.8,10.1c-3.2-1.8-9.5-5.2-19.4-5.2c-11.8,0-16.3,7.1-16.2,13.2c0,8,5.7,12,19.1,17.5    c15.8,6.4,23.8,14.4,23.9,28c0,12.1-8.4,23.5-24.2,26.2l0,16L845.8,600.5z"/>
	</g>
</g>
<g xmlns="http://www.w3.org/2000/svg">
	<path class="st2" d="M1098.1,309.5c-20.2,46.1-74,67.2-120.1,47c-46.1-20.2-67.2-74-47-120.1c20.2-46.1,74-67.2,120.1-47   C1097.3,209.6,1118.3,263.4,1098.1,309.5z"/>
	<path class="st3" d="M1083.2,303c-18,42.3-71.8,58-109.8,32.5c-24.2-15.8-37.4-45.2-32.8-74c7.1-48.6,60.3-77,104.1-57.2   C1081.8,220.3,1100,265.2,1083.2,303z"/>
	<g>
		<path class="st2" d="M1009.4,335.9l0-15.5c-8.9-0.1-18.1-2.9-23.5-6.7l3.7-10.3c5.5,3.7,13.5,6.6,22.1,6.5    c10.9,0,18.3-6.3,18.2-15.1c0-8.4-6-13.6-17.4-18.2c-15.7-6.1-25.4-13.1-25.4-26.5c0-12.7,9-22.4,23.1-24.8l0-15.5l9.5,0l0,14.9    c9.2,0.3,15.5,2.7,20,5.3l-3.8,10.1c-3.2-1.8-9.5-5.2-19.4-5.2c-11.8,0-16.3,7.1-16.2,13.2c0,8,5.7,12,19.1,17.5    c15.8,6.4,23.8,14.4,23.9,28c0,12.1-8.4,23.5-24.2,26.2l0,16L1009.4,335.9z"/>
	</g>
</g>
<ellipse xmlns="http://www.w3.org/2000/svg" transform="matrix(0.988 -0.1545 0.1545 0.988 -21.6271 267.5376)" class="st2" cx="1710.7" cy="272.9" rx="91.2" ry="91.2"/>
<path xmlns="http://www.w3.org/2000/svg" class="st3" d="M1779.3,303c-18,42.3-71.8,58-109.8,32.5c-24.2-15.8-37.4-45.2-32.8-74c7.1-48.6,60.3-77,104.1-57.2  C1778,220.3,1796.2,265.2,1779.3,303z"/>
<g xmlns="http://www.w3.org/2000/svg">
	<path class="st2" d="M1705.6,335.9l0-15.5c-8.9-0.1-18.1-2.9-23.5-6.7l3.7-10.3c5.5,3.7,13.5,6.6,22.1,6.5   c10.9,0,18.3-6.3,18.2-15.1c0-8.4-6-13.6-17.4-18.2c-15.7-6.1-25.4-13.1-25.4-26.5c0-12.7,9-22.4,23.1-24.8l0-15.5l9.5,0l0,14.9   c9.2,0.3,15.5,2.7,20,5.3l-3.8,10.1c-3.2-1.8-9.5-5.2-19.4-5.2c-11.8,0-16.3,7.1-16.2,13.2c0,8,5.7,12,19.1,17.5   c15.8,6.4,23.8,14.4,23.9,28c0,12.1-8.4,23.5-24.2,26.2l0,16L1705.6,335.9z"/>
</g>
<g xmlns="http://www.w3.org/2000/svg">
	<path class="st2" d="M1980.1,574.1c-20.2,46.1-74,67.2-120.1,47c-46.1-20.2-67.2-74-47-120.1c20.2-46.1,74-67.2,120.1-47   C1979.3,474.2,2000.3,527.9,1980.1,574.1z"/>
	<path class="st3" d="M1965.2,567.5c-18,42.3-71.8,58-109.8,32.5c-24.2-15.8-37.4-45.2-32.8-74c7.1-48.6,60.3-77,104.1-57.2   C1963.8,484.8,1982,529.8,1965.2,567.5z"/>
	<g>
		<path class="st2" d="M1891.4,600.5l0-15.5c-8.9-0.1-18.1-2.9-23.5-6.7l3.7-10.3c5.5,3.7,13.5,6.6,22.1,6.5    c10.9,0,18.3-6.3,18.2-15.1c0-8.4-6-13.6-17.4-18.2c-15.7-6.1-25.4-13.1-25.4-26.5c0-12.7,9-22.4,23.1-24.8l0-15.5l9.5,0l0,14.9    c9.2,0.3,15.5,2.7,20,5.3l-3.8,10.1c-3.2-1.8-9.5-5.2-19.4-5.2c-11.8,0-16.3,7.1-16.2,13.2c0,8,5.7,12,19.1,17.5    c15.8,6.4,23.8,14.4,23.9,28c0,12.1-8.4,23.5-24.2,26.2l0,16L1891.4,600.5z"/>
	</g>
</g>
<g xmlns="http://www.w3.org/2000/svg">
	<path class="st2" d="M1473.1,197.1c-20.2,46.1-74,67.2-120.1,47c-46.1-20.2-67.2-74-47-120.1c20.2-46.1,74-67.2,120.1-47   C1472.3,97.2,1493.3,151,1473.1,197.1z"/>
	<path class="st3" d="M1458.2,190.6c-18,42.3-71.8,58-109.8,32.5c-24.2-15.8-37.4-45.2-32.8-74c7.1-48.6,60.3-77,104.1-57.2   C1456.9,107.9,1475,152.8,1458.2,190.6z"/>
	<g>
		<path class="st2" d="M1384.4,223.5l0-15.5c-8.9-0.1-18.1-2.9-23.5-6.7l3.7-10.3c5.5,3.7,13.5,6.6,22.1,6.5    c10.9,0,18.3-6.3,18.2-15.1c0-8.4-6-13.6-17.4-18.2c-15.7-6.1-25.4-13.1-25.4-26.5c0-12.7,9-22.4,23.1-24.8l0-15.5l9.5,0l0,14.9    c9.2,0.3,15.5,2.7,20,5.3l-3.8,10.1c-3.2-1.8-9.5-5.2-19.4-5.2c-11.8,0-16.3,7.1-16.2,13.2c0,8,5.7,12,19.1,17.4    c15.8,6.4,23.8,14.4,23.9,28c0,12.1-8.4,23.5-24.2,26.2l0,16L1384.4,223.5z"/>
	</g>
</g>
<g xmlns="http://www.w3.org/2000/svg">
	<g>
		<g>
			<g>
				<path class="st1" d="M1751.2,680.1c-4.4,0-8-3.6-8-8c0-6.5-0.2-13.1-0.5-19.6c-0.2-4.4,3.2-8.2,7.6-8.4c4.4-0.2,8.2,3.2,8.4,7.6      c0.3,6.8,0.5,13.6,0.5,20.4C1759.2,676.5,1755.6,680.1,1751.2,680.1z"/>
			</g>
			<g>
				<path class="st1" d="M1746.5,619.8c-3.9,0-7.3-2.8-7.9-6.8c-2-13-4.8-26.1-8.2-38.8c-1.1-4.3,1.4-8.7,5.7-9.8      c4.3-1.1,8.7,1.4,9.8,5.7c3.5,13.3,6.4,26.9,8.5,40.4c0.7,4.4-2.3,8.5-6.7,9.1C1747.4,619.8,1747,619.8,1746.5,619.8z       M983,619.5c-0.4,0-0.8,0-1.3-0.1c-4.4-0.7-7.3-4.8-6.7-9.1c2.1-13.6,5-27.2,8.6-40.4c1.1-4.3,5.5-6.8,9.8-5.7      c4.3,1.1,6.8,5.5,5.7,9.8c-3.4,12.7-6.2,25.7-8.2,38.8C990.2,616.7,986.8,619.5,983,619.5z M1725.7,541.7c-3.2,0-6.3-2-7.5-5.1      c-4.7-12.3-10.1-24.5-16.1-36.2c-2-3.9-0.4-8.8,3.5-10.8c3.9-2,8.8-0.4,10.8,3.5c6.2,12.2,11.9,24.9,16.8,37.8      c1.6,4.1-0.5,8.8-4.6,10.3C1727.6,541.6,1726.7,541.7,1725.7,541.7z M1003.8,541.4c-1,0-1.9-0.2-2.9-0.5      c-4.1-1.6-6.2-6.2-4.6-10.3c4.9-12.8,10.6-25.5,16.8-37.7c2-3.9,6.8-5.5,10.8-3.5c3.9,2,5.5,6.8,3.5,10.8      c-6,11.7-11.4,23.9-16.1,36.2C1010.1,539.5,1007.1,541.4,1003.8,541.4z M1689,469.7c-2.6,0-5.2-1.3-6.7-3.6      c-7.2-11-15-21.8-23.3-32.1c-2.8-3.4-2.3-8.5,1.2-11.3c3.4-2.8,8.5-2.3,11.3,1.2c8.6,10.7,16.8,21.9,24.3,33.4      c2.4,3.7,1.4,8.7-2.3,11.1C1692,469.3,1690.5,469.7,1689,469.7z M1040.6,469.5c-1.5,0-3-0.4-4.4-1.3c-3.7-2.4-4.8-7.4-2.3-11.1      c7.5-11.5,15.7-22.7,24.3-33.4c2.8-3.4,7.8-4,11.3-1.2c3.4,2.8,4,7.8,1.2,11.3c-8.3,10.2-16.1,21-23.3,32      C1045.8,468.2,1043.2,469.5,1040.6,469.5z M1638.1,406.9c-2,0-4.1-0.8-5.7-2.3c-9.3-9.3-19.2-18.2-29.4-26.5      c-3.4-2.8-4-7.8-1.2-11.3c2.8-3.4,7.8-4,11.3-1.2c10.7,8.6,21,17.9,30.7,27.7c3.1,3.1,3.1,8.2,0,11.3      C1642.2,406.1,1640.2,406.9,1638.1,406.9z M1091.5,406.7c-2,0-4.1-0.8-5.7-2.3c-3.1-3.1-3.1-8.2,0-11.3c9.7-9.7,20-19,30.7-27.6      c3.4-2.8,8.5-2.3,11.3,1.2c2.8,3.4,2.3,8.5-1.2,11.3c-10.2,8.3-20.1,17.2-29.5,26.5C1095.6,406,1093.5,406.7,1091.5,406.7z       M1575.4,356c-1.5,0-3-0.4-4.4-1.3c-11-7.2-22.6-13.9-34.3-19.9c-3.9-2-5.5-6.8-3.5-10.8c2-3.9,6.8-5.5,10.8-3.5      c12.2,6.2,24.2,13.2,35.7,20.7c3.7,2.4,4.8,7.4,2.3,11.1C1580.5,354.7,1578,356,1575.4,356z M1154.3,355.9      c-2.6,0-5.2-1.3-6.7-3.6c-2.4-3.7-1.4-8.7,2.3-11.1c11.5-7.5,23.5-14.4,35.8-20.7c3.9-2,8.8-0.4,10.8,3.5      c2,3.9,0.4,8.8-3.5,10.8c-11.7,6-23.3,12.7-34.3,19.8C1157.3,355.4,1155.8,355.9,1154.3,355.9z M1503.4,319.2      c-1,0-1.9-0.2-2.9-0.5c-12.3-4.7-25-8.8-37.7-12.3c-4.3-1.1-6.8-5.5-5.7-9.8c1.1-4.3,5.5-6.8,9.8-5.7      c13.3,3.5,26.5,7.8,39.3,12.8c4.1,1.6,6.2,6.2,4.6,10.3C1509.7,317.3,1506.6,319.2,1503.4,319.2z M1226.3,319.1      c-3.2,0-6.2-2-7.5-5.1c-1.6-4.1,0.5-8.8,4.6-10.3c12.8-4.9,26-9.2,39.3-12.7c4.3-1.1,8.7,1.4,9.8,5.7c1.1,4.3-1.4,8.7-5.7,9.8      c-12.7,3.4-25.4,7.5-37.7,12.2C1228.2,319,1227.3,319.1,1226.3,319.1z M1425.4,298.3c-0.4,0-0.8,0-1.3-0.1      c-13-2-26.2-3.4-39.4-4.1c-4.4-0.2-7.8-4-7.6-8.4c0.2-4.4,4-7.8,8.4-7.6c13.7,0.7,27.5,2.2,41.1,4.3c4.4,0.7,7.3,4.8,6.7,9.1      C1432.6,295.5,1429.2,298.3,1425.4,298.3z M1304.4,298.3c-3.9,0-7.3-2.8-7.9-6.8c-0.7-4.4,2.3-8.5,6.7-9.1      c13.5-2.1,27.3-3.6,41.1-4.3c4.4-0.2,8.2,3.2,8.4,7.6c0.2,4.4-3.2,8.2-7.6,8.4c-13.2,0.7-26.4,2-39.4,4.1      C1305.2,298.3,1304.8,298.3,1304.4,298.3z"/>
			</g>
			<g>
				<path class="st1" d="M978.2,680.1c-4.4,0-8-3.6-8-8c0-6.8,0.2-13.6,0.5-20.4c0.2-4.4,4-7.8,8.4-7.6c4.4,0.2,7.8,4,7.6,8.4      c-0.3,6.5-0.5,13.1-0.5,19.6C986.2,676.5,982.6,680.1,978.2,680.1z"/>
			</g>
		</g>
	</g>
	<g>
		<g>
			<g>
				<path class="st1" d="M1086.5,680.1c-4.4,0-8-3.6-8-8c0-6.8,0.2-13.8,0.7-20.6c0.3-4.4,4.1-7.7,8.5-7.4c4.4,0.3,7.7,4.1,7.4,8.5      c-0.5,6.4-0.7,13-0.7,19.4C1094.5,676.5,1090.9,680.1,1086.5,680.1z"/>
			</g>
			<g>
				<path class="st1" d="M1092.9,620.8c-0.6,0-1.1-0.1-1.7-0.2c-4.3-0.9-7.1-5.2-6.1-9.5c2.9-13.3,6.8-26.5,11.5-39.2      c1.5-4.1,6.2-6.2,10.3-4.7c4.1,1.5,6.2,6.2,4.7,10.3c-4.5,12-8.1,24.5-10.9,37C1099.9,618.3,1096.5,620.8,1092.9,620.8z       M1636.6,620.6c-3.7,0-7-2.6-7.8-6.3c-2.7-12.5-6.4-25-10.9-37c-1.5-4.1,0.5-8.7,4.7-10.3c4.1-1.5,8.7,0.5,10.3,4.7      c4.8,12.7,8.6,25.9,11.5,39.2c0.9,4.3-1.8,8.6-6.1,9.5C1637.7,620.6,1637.1,620.6,1636.6,620.6z M1120.5,546.7      c-1.3,0-2.6-0.3-3.8-1c-3.9-2.1-5.3-7-3.2-10.9c6.5-11.9,14-23.4,22.1-34.3c2.7-3.5,7.7-4.2,11.2-1.6c3.5,2.7,4.3,7.7,1.6,11.2      c-7.7,10.3-14.7,21.2-20.9,32.4C1126.1,545.2,1123.4,546.7,1120.5,546.7z M1608.8,546.5c-2.8,0-5.6-1.5-7-4.2      c-6.2-11.2-13.2-22.1-20.9-32.4c-2.7-3.5-1.9-8.5,1.6-11.2c3.5-2.7,8.5-1.9,11.2,1.6c8.2,10.9,15.6,22.4,22.1,34.3      c2.1,3.9,0.7,8.7-3.2,10.9C1611.5,546.2,1610.1,546.5,1608.8,546.5z M1168.1,483.3c-2,0-4.1-0.8-5.7-2.3      c-3.1-3.1-3.1-8.2,0-11.3c9.6-9.6,20-18.6,30.8-26.7c3.5-2.6,8.5-1.9,11.2,1.6c2.6,3.5,1.9,8.6-1.6,11.2      c-10.3,7.7-20,16.2-29.1,25.2C1172.1,482.6,1170.1,483.3,1168.1,483.3z M1561.3,483.2c-2,0-4.1-0.8-5.7-2.3      c-9.1-9.1-18.9-17.6-29.1-25.2c-3.5-2.6-4.3-7.7-1.6-11.2c2.6-3.5,7.7-4.3,11.2-1.6c10.9,8.1,21.2,17.1,30.9,26.7      c3.1,3.1,3.1,8.2,0,11.3C1565.4,482.5,1563.4,483.2,1561.3,483.2z M1231.4,435.9c-2.8,0-5.6-1.5-7-4.2      c-2.1-3.9-0.7-8.7,3.2-10.9c11.9-6.5,24.4-12.2,37.1-17c4.1-1.5,8.7,0.6,10.3,4.7c1.5,4.1-0.6,8.7-4.7,10.3      c-12,4.5-23.8,9.9-35,16C1234,435.6,1232.7,435.9,1231.4,435.9z M1497.9,435.8c-1.3,0-2.6-0.3-3.8-1      c-11.3-6.2-23.1-11.5-35.1-16c-4.1-1.5-6.2-6.1-4.7-10.3c1.5-4.1,6.1-6.2,10.3-4.7c12.7,4.7,25.2,10.4,37.1,17      c3.9,2.1,5.3,7,3.2,10.9C1503.5,434.3,1500.8,435.8,1497.9,435.8z M1305.5,408.2c-3.7,0-7-2.6-7.8-6.3c-0.9-4.3,1.8-8.6,6.1-9.5      c13.2-2.9,26.8-4.8,40.4-5.8c4.4-0.3,8.2,3,8.5,7.4s-3,8.2-7.4,8.5c-12.8,0.9-25.6,2.7-38.1,5.4      C1306.6,408.2,1306.1,408.2,1305.5,408.2z M1423.7,408.2c-0.6,0-1.1-0.1-1.7-0.2c-12.5-2.7-25.3-4.5-38.1-5.4      c-4.4-0.3-7.7-4.1-7.4-8.5c0.3-4.4,4.1-7.7,8.5-7.4c13.6,1,27.2,2.9,40.4,5.7c4.3,0.9,7.1,5.2,6.1,9.5      C1430.7,405.6,1427.4,408.2,1423.7,408.2z"/>
			</g>
			<g>
				<path class="st1" d="M1642.9,680.1c-4.4,0-8-3.6-8-8c0-6.5-0.2-13-0.7-19.4c-0.3-4.4,3-8.2,7.4-8.5c4.4-0.3,8.2,3,8.5,7.4      c0.5,6.8,0.7,13.7,0.7,20.6C1650.9,676.5,1647.4,680.1,1642.9,680.1z"/>
			</g>
		</g>
	</g>
	<g>
		<path class="st1" d="M1749.8,684.8C1749.8,684.8,1749.7,684.8,1749.8,684.8c-1.6,0-3.1-0.8-4-2l-51.1-68.7c-1.6-2.2-1.2-5.3,1-7    c2.2-1.6,5.3-1.2,7,1l47.2,63.5l47-58.4c1.7-2.1,4.9-2.5,7-0.8c2.1,1.7,2.5,4.9,0.8,7l-51.1,63.4    C1752.8,684.1,1751.3,684.8,1749.8,684.8z"/>
	</g>
	<g>
		<path class="st1" d="M1086.4,684.8C1086.3,684.8,1086.3,684.8,1086.4,684.8c-1.6,0-3.1-0.8-4-2l-51.1-68.7c-1.6-2.2-1.2-5.3,1-7    c2.2-1.6,5.3-1.2,7,1l47.2,63.5l47-58.4c1.7-2.1,4.9-2.5,7-0.8c2.1,1.7,2.5,4.9,0.8,7l-51.1,63.4    C1089.3,684.1,1087.9,684.8,1086.4,684.8z"/>
	</g>
</g>
<g xmlns="http://www.w3.org/2000/svg">
	<g>
		<g>
			<path class="st3" d="M2101.6,1762.2v20.3c0,7.9-6.4,14.3-14.3,14.3H1840c-7.9,0-14.3-6.4-14.3-14.3v-20.3c0-3.5,1.3-6.8,3.4-9.3     c2.6-3.1,6.6-5.1,10.9-5.1h247.3c4.4,0,8.3,2,10.9,5.1C2100.3,1755.5,2101.6,1758.7,2101.6,1762.2z"/>
			<rect x="1839.3" y="1747.9" class="st2" width="7.2" height="48.9"/>
			<rect x="1869.5" y="1747.9" class="st2" width="7.2" height="48.9"/>
			<rect x="1899.6" y="1747.9" class="st2" width="7.2" height="48.9"/>
			<rect x="1929.7" y="1747.9" class="st2" width="7.2" height="48.9"/>
			<rect x="1959.8" y="1747.9" class="st2" width="7.2" height="48.9"/>
			<rect x="1989.9" y="1747.9" class="st2" width="7.2" height="48.9"/>
			<rect x="2020.1" y="1747.9" class="st2" width="7.2" height="48.9"/>
			<rect x="2050.2" y="1747.9" class="st2" width="7.2" height="48.9"/>
			<rect x="2080.3" y="1747.9" class="st2" width="7.2" height="48.9"/>
			<path class="st2" d="M2098.2,1753H1829c2.6-3.1,6.6-5.1,10.9-5.1h247.3C2091.6,1747.9,2095.6,1749.8,2098.2,1753z"/>
			<path class="st2" d="M2098.2,1791.7H1829c2.6,3.1,6.6,5.1,10.9,5.1h247.3C2091.6,1796.8,2095.6,1794.8,2098.2,1791.7z"/>
		</g>
		<g>
			<path class="st3" d="M2118.9,1713.3v20.3c0,7.9-6.4,14.3-14.3,14.3h-247.3c-7.9,0-14.3-6.4-14.3-14.3v-20.3     c0-3.5,1.3-6.8,3.4-9.3c2.6-3.1,6.6-5.1,10.9-5.1h247.3c4.4,0,8.3,2,10.9,5.1C2117.6,1706.5,2118.9,1709.8,2118.9,1713.3z"/>
			<rect x="1856.6" y="1699" class="st2" width="7.2" height="48.9"/>
			<rect x="1886.8" y="1699" class="st2" width="7.2" height="48.9"/>
			<rect x="1916.9" y="1699" class="st2" width="7.2" height="48.9"/>
			<rect x="1947" y="1699" class="st2" width="7.2" height="48.9"/>
			<rect x="1977.1" y="1699" class="st2" width="7.2" height="48.9"/>
			<rect x="2007.2" y="1699" class="st2" width="7.2" height="48.9"/>
			<rect x="2037.4" y="1699" class="st2" width="7.2" height="48.9"/>
			<rect x="2067.5" y="1699" class="st2" width="7.2" height="48.9"/>
			<rect x="2097.6" y="1699" class="st2" width="7.2" height="48.9"/>
			<path class="st2" d="M2115.5,1704h-269.2c2.6-3.1,6.6-5.1,10.9-5.1h247.3C2108.9,1698.9,2112.9,1700.9,2115.5,1704z"/>
			<path class="st2" d="M2115.5,1742.8h-269.2c2.6,3.1,6.6,5.1,10.9,5.1h247.3C2108.9,1747.9,2112.9,1745.9,2115.5,1742.8z"/>
		</g>
		<g>
			<path class="st3" d="M2105.5,1664.4v20.3c0,7.9-6.4,14.3-14.3,14.3h-247.3c-7.9,0-14.3-6.4-14.3-14.3v-20.3     c0-3.5,1.3-6.8,3.4-9.3c2.6-3.1,6.6-5.1,10.9-5.1h247.3c4.4,0,8.3,2,10.9,5.1C2104.2,1657.7,2105.5,1660.9,2105.5,1664.4z"/>
			<rect x="1843.2" y="1650.1" class="st2" width="7.2" height="48.9"/>
			<rect x="1873.4" y="1650.1" class="st2" width="7.2" height="48.9"/>
			<rect x="1903.5" y="1650.1" class="st2" width="7.2" height="48.9"/>
			<rect x="1933.6" y="1650.1" class="st2" width="7.2" height="48.9"/>
			<rect x="1963.7" y="1650.1" class="st2" width="7.2" height="48.9"/>
			<rect x="1993.8" y="1650.1" class="st2" width="7.2" height="48.9"/>
			<rect x="2023.9" y="1650.1" class="st2" width="7.2" height="48.9"/>
			<rect x="2054.1" y="1650.1" class="st2" width="7.2" height="48.9"/>
			<rect x="2084.2" y="1650.1" class="st2" width="7.2" height="48.9"/>
			<path class="st2" d="M2102.1,1655.2h-269.2c2.6-3.1,6.6-5.1,10.9-5.1h247.3C2095.5,1650.1,2099.4,1652.1,2102.1,1655.2z"/>
			<path class="st2" d="M2102.1,1694h-269.2c2.6,3.1,6.6,5.1,10.9,5.1h247.3C2095.5,1699,2099.4,1697.1,2102.1,1694z"/>
		</g>
		<g>
			<path class="st3" d="M2111,1616.5v20.3c0,7.9-6.4,14.3-14.3,14.3h-247.3c-7.9,0-14.3-6.4-14.3-14.3v-20.3c0-3.5,1.3-6.8,3.4-9.3     c2.6-3.1,6.6-5.1,10.9-5.1h247.3c4.4,0,8.3,2,10.9,5.1C2109.7,1609.7,2111,1613,2111,1616.5z"/>
			<rect x="1848.8" y="1602.2" class="st2" width="7.2" height="48.9"/>
			<rect x="1878.9" y="1602.2" class="st2" width="7.2" height="48.9"/>
			<rect x="1909" y="1602.2" class="st2" width="7.2" height="48.9"/>
			<rect x="1939.1" y="1602.2" class="st2" width="7.2" height="48.9"/>
			<rect x="1969.2" y="1602.2" class="st2" width="7.2" height="48.9"/>
			<rect x="1999.3" y="1602.2" class="st2" width="7.2" height="48.9"/>
			<rect x="2029.5" y="1602.2" class="st2" width="7.2" height="48.9"/>
			<rect x="2059.6" y="1602.2" class="st2" width="7.2" height="48.9"/>
			<rect x="2089.7" y="1602.2" class="st2" width="7.2" height="48.9"/>
			<path class="st2" d="M2107.6,1607.2h-269.2c2.6-3.1,6.6-5.1,10.9-5.1h247.3C2101,1602.2,2105,1604.1,2107.6,1607.2z"/>
			<path class="st2" d="M2107.6,1646h-269.2c2.6,3.1,6.6,5.1,10.9,5.1h247.3C2101,1651.1,2105,1649.1,2107.6,1646z"/>
		</g>
		<g>
			<path class="st3" d="M2080.2,1566.8v20.3c0,7.9-6.4,14.3-14.3,14.3h-247.3c-7.9,0-14.3-6.4-14.3-14.3v-20.3     c0-3.5,1.3-6.8,3.4-9.3c2.6-3.1,6.6-5.1,10.9-5.1h247.3c4.4,0,8.3,2,10.9,5.1C2078.9,1560.1,2080.2,1563.3,2080.2,1566.8z"/>
			<rect x="1817.9" y="1552.5" class="st2" width="7.2" height="48.9"/>
			<rect x="1848" y="1552.5" class="st2" width="7.2" height="48.9"/>
			<rect x="1878.2" y="1552.5" class="st2" width="7.2" height="48.9"/>
			<rect x="1908.3" y="1552.5" class="st2" width="7.2" height="48.9"/>
			<rect x="1938.4" y="1552.5" class="st2" width="7.2" height="48.9"/>
			<rect x="1968.5" y="1552.5" class="st2" width="7.2" height="48.9"/>
			<rect x="1998.6" y="1552.5" class="st2" width="7.2" height="48.9"/>
			<rect x="2028.8" y="1552.5" class="st2" width="7.2" height="48.9"/>
			<rect x="2058.9" y="1552.5" class="st2" width="7.2" height="48.9"/>
			<path class="st2" d="M2076.8,1557.6h-269.2c2.6-3.1,6.6-5.1,10.9-5.1h247.3C2070.2,1552.5,2074.1,1554.5,2076.8,1557.6z"/>
			<path class="st2" d="M2076.8,1596.3h-269.2c2.6,3.1,6.6,5.1,10.9,5.1h247.3C2070.2,1601.4,2074.1,1599.4,2076.8,1596.3z"/>
		</g>
		<g>
			<path class="st3" d="M2110.5,1518.5v20.3c0,7.9-6.4,14.3-14.3,14.3h-247.3c-7.9,0-14.3-6.4-14.3-14.3v-20.3     c0-3.5,1.3-6.8,3.4-9.3c2.6-3.1,6.6-5.1,10.9-5.1h247.3c4.4,0,8.3,2,10.9,5.1C2109.2,1511.7,2110.5,1514.9,2110.5,1518.5z"/>
			<rect x="1848.3" y="1504.1" class="st2" width="7.2" height="48.9"/>
			<rect x="1878.4" y="1504.1" class="st2" width="7.2" height="48.9"/>
			<rect x="1908.5" y="1504.1" class="st2" width="7.2" height="48.9"/>
			<rect x="1938.6" y="1504.1" class="st2" width="7.2" height="48.9"/>
			<rect x="1968.7" y="1504.1" class="st2" width="7.2" height="48.9"/>
			<rect x="1998.9" y="1504.1" class="st2" width="7.2" height="48.9"/>
			<rect x="2029" y="1504.1" class="st2" width="7.2" height="48.9"/>
			<rect x="2059.1" y="1504.1" class="st2" width="7.2" height="48.9"/>
			<rect x="2089.2" y="1504.1" class="st2" width="7.2" height="48.9"/>
			<path class="st2" d="M2107.1,1509.2h-269.2c2.6-3.1,6.6-5.1,10.9-5.1h247.3C2100.5,1504.1,2104.5,1506.1,2107.1,1509.2z"/>
			<path class="st2" d="M2107.1,1548h-269.2c2.6,3.1,6.6,5.1,10.9,5.1h247.3C2100.5,1553.1,2104.5,1551.1,2107.1,1548z"/>
		</g>
		<g>
			<path class="st3" d="M2099.7,1469.4v20.3c0,7.9-6.4,14.3-14.3,14.3h-247.3c-7.9,0-14.3-6.4-14.3-14.3v-20.3     c0-3.5,1.3-6.8,3.4-9.3c2.6-3.1,6.6-5.1,10.9-5.1h247.3c4.4,0,8.3,2,10.9,5.1C2098.5,1462.6,2099.7,1465.9,2099.7,1469.4z"/>
			<rect x="1837.5" y="1455.1" class="st2" width="7.2" height="48.9"/>
			<rect x="1867.6" y="1455.1" class="st2" width="7.2" height="48.9"/>
			<rect x="1897.7" y="1455.1" class="st2" width="7.2" height="48.9"/>
			<rect x="1927.9" y="1455.1" class="st2" width="7.2" height="48.9"/>
			<rect x="1958" y="1455.1" class="st2" width="7.2" height="48.9"/>
			<rect x="1988.1" y="1455.1" class="st2" width="7.2" height="48.9"/>
			<rect x="2018.2" y="1455.1" class="st2" width="7.2" height="48.9"/>
			<rect x="2048.3" y="1455.1" class="st2" width="7.2" height="48.9"/>
			<rect x="2078.5" y="1455.1" class="st2" width="7.2" height="48.9"/>
			<path class="st2" d="M2096.4,1460.1h-269.2c2.6-3.1,6.6-5.1,10.9-5.1h247.3C2089.8,1455.1,2093.7,1457,2096.4,1460.1z"/>
			<path class="st2" d="M2096.4,1498.9h-269.2c2.6,3.1,6.6,5.1,10.9,5.1h247.3C2089.8,1504,2093.7,1502,2096.4,1498.9z"/>
		</g>
		<g>
			<path class="st3" d="M2114.5,1420.7v20.3c0,7.9-6.4,14.3-14.3,14.3h-247.3c-7.9,0-14.3-6.4-14.3-14.3v-20.3     c0-3.5,1.3-6.8,3.4-9.3c2.6-3.1,6.6-5.1,10.9-5.1h247.3c4.4,0,8.3,2,10.9,5.1C2113.2,1414,2114.5,1417.2,2114.5,1420.7z"/>
			<rect x="1852.3" y="1406.4" class="st2" width="7.2" height="48.9"/>
			<rect x="1882.4" y="1406.4" class="st2" width="7.2" height="48.9"/>
			<rect x="1912.5" y="1406.4" class="st2" width="7.2" height="48.9"/>
			<rect x="1942.6" y="1406.4" class="st2" width="7.2" height="48.9"/>
			<rect x="1972.8" y="1406.4" class="st2" width="7.2" height="48.9"/>
			<rect x="2002.9" y="1406.4" class="st2" width="7.2" height="48.9"/>
			<rect x="2033" y="1406.4" class="st2" width="7.2" height="48.9"/>
			<rect x="2063.1" y="1406.4" class="st2" width="7.2" height="48.9"/>
			<rect x="2093.2" y="1406.4" class="st2" width="7.2" height="48.9"/>
			<path class="st2" d="M2111.1,1411.5H1842c2.6-3.1,6.6-5.1,10.9-5.1h247.3C2104.6,1406.4,2108.5,1408.4,2111.1,1411.5z"/>
			<path class="st2" d="M2111.1,1450.3H1842c2.6,3.1,6.6,5.1,10.9,5.1h247.3C2104.6,1455.3,2108.5,1453.4,2111.1,1450.3z"/>
		</g>
	</g>
	<g>
		
			<ellipse transform="matrix(0.9497 -0.3132 0.3132 0.9497 -425.0992 656.5093)" class="st2" cx="1831" cy="1651.5" rx="147.6" ry="147.6"/>
		<path class="st3" d="M1946.4,1688.8c-20.6,63.7-88.9,98.7-152.6,78.1c-6.6-2.1-13-4.8-19-7.9c-10.1-5.3-19.3-11.9-27.3-19.5    c-3-2.9-5.9-5.9-8.6-9.1c-19.9-23.3-30.5-53.7-28.9-85.1c0.5-10.3,2.4-20.6,5.7-30.9c15.3-47.5,57.2-79,104-83.5    c15.9-1.5,32.4,0.1,48.6,5.4c14,4.5,26.7,11.4,37.6,20c3.3,2.6,6.5,5.3,9.5,8.3c8.1,7.9,15.1,16.8,20.7,26.5    C1952.5,1619.5,1957.3,1654.8,1946.4,1688.8z"/>
		<path class="st4" d="M1905.9,1556.1l-167,174.1c-19.9-23.3-30.5-53.7-28.9-85.1l109.7-114.3c15.9-1.5,32.4,0.1,48.6,5.4    C1882.3,1540.7,1894.9,1547.5,1905.9,1556.1z"/>
		<path class="st4" d="M1936,1590.9l-161.2,168c-10.1-5.3-19.3-11.9-27.3-19.5l167.9-175C1923.5,1572.2,1930.4,1581.2,1936,1590.9z"/>
		<path class="st5" d="M1839.2,1536.3c-14.3-1.5-16.9-0.1-23.4,12.6c1.6-14.1,0.2-16.8-12.6-23.4c14.3,1.5,16.9,0.1,23.4-12.6    C1825,1527.2,1826.5,1529.9,1839.2,1536.3z"/>
		<path class="st5" d="M1788.5,1764c-12.1-1.3-14.3-0.1-19.7,10.6c1.3-11.9,0.2-14.1-10.6-19.7c12.1,1.3,14.3,0.1,19.7-10.6    C1776.6,1756.3,1777.8,1758.5,1788.5,1764z"/>
	</g>
</g>
<g xmlns="http://www.w3.org/2000/svg">
	<g>
		<path class="st6" d="M1926.7,1161.6c-89.3,0-162-72.7-162-162c0-89.3,72.7-162,162-162c89.3,0,162,72.7,162,162    C2088.6,1088.9,2016,1161.6,1926.7,1161.6z M1926.7,845.7c-84.9,0-154,69.1-154,154c0,84.9,69.1,154,154,154    c84.9,0,154-69.1,154-154C2080.6,914.7,2011.6,845.7,1926.7,845.7z"/>
	</g>
	<g>
		<g>
			<path class="st6" d="M1926.7,1091.6c-11.9,0-21.5-9.6-21.5-21.5V772.9c0-11.9,9.6-21.5,21.5-21.5s21.5,9.6,21.5,21.5v297.2     C1948.2,1081.9,1938.5,1091.6,1926.7,1091.6z"/>
		</g>
	</g>
</g>
<g xmlns="http://www.w3.org/2000/svg">
	<g>
		<path class="st3" d="M1926.7,1161.6c-89.3,0-162-72.7-162-162c0-89.3,72.7-162,162-162c89.3,0,162,72.7,162,162    C2088.6,1088.9,2016,1161.6,1926.7,1161.6z M1926.7,845.7c-84.9,0-154,69.1-154,154c0,84.9,69.1,154,154,154    c84.9,0,154-69.1,154-154C2080.6,914.7,2011.6,845.7,1926.7,845.7z"/>
	</g>
	<g>
		<g>
			<path class="st3" d="M1926.7,1091.6c-11.9,0-21.5-9.6-21.5-21.5V772.9c0-11.9,9.6-21.5,21.5-21.5s21.5,9.6,21.5,21.5v297.2     C1948.2,1081.9,1938.5,1091.6,1926.7,1091.6z"/>
		</g>
		<g>
			<path class="st3" d="M1928.2,1109.2c-0.3,0-0.6,0-0.8,0c-6.6-0.3-12.7-3.5-16.5-8.8L1821.5,986c-7-9.6-4.9-23,4.7-30     c9.6-7,23-4.9,30,4.7l73.3,92.4l68.6-93.7c7.7-9,21.3-10.1,30.3-2.4c9,7.7,10.1,21.3,2.4,30.3l-86.3,114.4     C1940.4,1106.5,1934.4,1109.2,1928.2,1109.2z"/>
		</g>
	</g>
</g>
<g xmlns="http://www.w3.org/2000/svg">
	<g>
		<path class="st3" d="M853.4,1145.1c-89.3,0-162-72.7-162-162c0-89.3,72.7-162,162-162c89.3,0,162,72.7,162,162    C1015.3,1072.5,942.7,1145.1,853.4,1145.1z M853.4,829.2c-84.9,0-154,69.1-154,154c0,84.9,69.1,154,154,154s154-69.1,154-154    C1007.3,898.3,938.3,829.2,853.4,829.2z"/>
	</g>
	<g>
		
			<ellipse transform="matrix(0.7071 -0.7071 0.7071 0.7071 -445.2635 891.3774)" class="st3" cx="853.4" cy="983.2" rx="117.2" ry="117.2"/>
		<path class="st1" d="M942.1,1032.4c-17.2,31.3-50.5,52.5-88.8,52.5c-38.3,0-71.6-21.2-88.8-52.5c10.9-19.4,27.9-34.8,48.5-43.7    c-8.8-9.7-14.1-22.5-14.1-36.6c0-30.1,24.4-54.4,54.4-54.4c30.1,0,54.4,24.4,54.4,54.4c0,14.1-5.4,26.9-14.1,36.6    C914.2,997.6,931.2,1013,942.1,1032.4z"/>
	</g>
</g>
<g xmlns="http://www.w3.org/2000/svg">
	<path class="st2" d="M2095.6,1260.9l-68-36.5c-1.9,3.6-3.8,7.1-5.8,10.7l0,0c-2.8,5.2,10.3,17.6,29.1,27.7   c18.9,10.1,36.4,14.2,39.2,9C2090.5,1271.3,2095.6,1260.9,2095.6,1260.9z"/>
	<path class="st3" d="M2095.7,1261.7c-2.8,5.2-20.3,1.1-39.2-9c-18.9-10.1-31.9-22.6-29.1-27.7c2.8-5.2,20.3-1.1,39.2,9   C2085.4,1244.1,2098.5,1256.5,2095.7,1261.7z"/>
</g>
<g xmlns="http://www.w3.org/2000/svg">
	<path class="st2" d="M1793.7,1398.2l-68.8,11.2c0.6,3.6,1.2,7.2,1.8,10.8l0,0c0.8,5.2,17,7,36.1,3.8c19.1-3.1,33.9-9.9,33-15.1   C1795.7,1408.5,1793.7,1398.2,1793.7,1398.2z"/>
	<path class="st3" d="M1794.1,1398.7c0.8,5.2-13.9,12-33,15.1c-19.1,3.1-35.3,1.4-36.1-3.8c-0.8-5.2,13.9-12,33-15.1   C1777.1,1391.8,1793.3,1393.5,1794.1,1398.7z"/>
</g>
<g xmlns="http://www.w3.org/2000/svg">
	<path class="st2" d="M1875.8,1277.6l-62.5-30.8c-1.6,3.3-3.2,6.6-4.8,9.8l0,0c-2.3,4.8,9.8,15.5,27.2,24.1   c17.4,8.5,33.3,11.6,35.7,6.9C1871.6,1287.1,1875.8,1277.6,1875.8,1277.6z"/>
	<path class="st3" d="M1875.9,1278.3c-2.3,4.8-18.3,1.7-35.7-6.9c-17.4-8.5-29.5-19.3-27.2-24.1c2.3-4.8,18.3-1.7,35.7,6.9   C1866.1,1262.7,1878.3,1273.5,1875.9,1278.3z"/>
</g>
<g xmlns="http://www.w3.org/2000/svg">
	<path class="st2" d="M1782.7,1161.4l-72,11.7c0.6,3.8,1.2,7.5,1.8,11.3l0,0c0.9,5.5,17.8,7.3,37.8,4c20-3.2,35.5-10.3,34.6-15.8   C1784.8,1172.2,1782.7,1161.4,1782.7,1161.4z"/>
	<path class="st3" d="M1783.2,1162c0.9,5.5-14.6,12.5-34.6,15.8c-20,3.2-36.9,1.4-37.8-4c-0.9-5.5,14.6-12.5,34.6-15.8   S1782.3,1156.5,1783.2,1162z"/>
</g>
<path xmlns="http://www.w3.org/2000/svg" class="st6" d="M1067.8,1403.2H631.3c-19.4,0-35.1-15.7-35.1-35.1v-92.3c0-19.4,15.7-35.1,35.1-35.1h436.6  c19.4,0,35.1,15.7,35.1,35.1v92.3C1103,1387.5,1087.2,1403.2,1067.8,1403.2z"/>
<path xmlns="http://www.w3.org/2000/svg" class="st2" d="M753.6,1299.1v45.7c0,12.3-10,22.3-22.3,22.3h-86.5c-4.5,0-8.8-1.4-12.3-3.7c-6-4-10-10.8-10-18.6v-45.7  c0-12.3,10-22.3,22.3-22.3h86.5c5,0,9.7,1.7,13.4,4.5C750.1,1285.3,753.6,1291.8,753.6,1299.1z"/>
<path xmlns="http://www.w3.org/2000/svg" class="st1" d="M929.9,1340.5H786.4c-10.3,0-18.6-8.3-18.6-18.6l0,0c0-10.3,8.3-18.6,18.6-18.6h143.5  c10.3,0,18.6,8.3,18.6,18.6l0,0C948.5,1332.2,940.2,1340.5,929.9,1340.5z"/>
<path xmlns="http://www.w3.org/2000/svg" class="st7" d="M1058.1,1340.5h-71.9c-10.3,0-18.6-8.3-18.6-18.6l0,0c0-10.3,8.3-18.6,18.6-18.6h71.9  c10.3,0,18.6,8.3,18.6,18.6l0,0C1076.7,1332.2,1068.3,1340.5,1058.1,1340.5z"/>
<path xmlns="http://www.w3.org/2000/svg" class="st3" d="M744.7,1281.2l-112.2,82.2c-6-4-10-10.8-10-18.6v-45.7c0-12.3,10-22.3,22.3-22.3h86.5  C736.3,1276.8,741,1278.4,744.7,1281.2z"/>
<path xmlns="http://www.w3.org/2000/svg" class="st8" d="M724.6,1341.4c0,8.3-6.7,15-15,15c-8.3,0-15-6.7-15-15c0-8.3,6.7-15,15-15  C717.9,1326.4,724.6,1333.1,724.6,1341.4z"/>
<path xmlns="http://www.w3.org/2000/svg" class="st1" d="M742.4,1341.4c0,8.3-6.7,15-15,15c-8.3,0-15-6.7-15-15c0-8.3,6.7-15,15-15  C735.7,1326.4,742.4,1333.1,742.4,1341.4z"/>
<path xmlns="http://www.w3.org/2000/svg" class="st6" d="M1067.8,1600.2H631.3c-19.4,0-35.1-15.7-35.1-35.1v-92.3c0-19.4,15.7-35.1,35.1-35.1h436.6  c19.4,0,35.1,15.7,35.1,35.1v92.3C1103,1584.5,1087.2,1600.2,1067.8,1600.2z"/>
<path xmlns="http://www.w3.org/2000/svg" class="st9" d="M753.6,1496.1v45.7c0,12.3-10,22.3-22.3,22.3h-86.5c-4.5,0-8.8-1.4-12.3-3.7c-6-4-10-10.8-10-18.6v-45.7  c0-12.3,10-22.3,22.3-22.3h86.5c5,0,9.7,1.7,13.4,4.5C750.1,1482.3,753.6,1488.8,753.6,1496.1z"/>
<path xmlns="http://www.w3.org/2000/svg" class="st1" d="M929.9,1537.5H786.4c-10.3,0-18.6-8.3-18.6-18.6l0,0c0-10.3,8.3-18.6,18.6-18.6h143.5  c10.3,0,18.6,8.3,18.6,18.6l0,0C948.5,1529.2,940.2,1537.5,929.9,1537.5z"/>
<path xmlns="http://www.w3.org/2000/svg" class="st7" d="M1058.1,1537.5h-71.9c-10.3,0-18.6-8.3-18.6-18.6l0,0c0-10.3,8.3-18.6,18.6-18.6h71.9  c10.3,0,18.6,8.3,18.6,18.6l0,0C1076.7,1529.2,1068.3,1537.5,1058.1,1537.5z"/>
<path xmlns="http://www.w3.org/2000/svg" class="st8" d="M744.7,1478.2l-112.2,82.2c-6-4-10-10.8-10-18.6v-45.7c0-12.3,10-22.3,22.3-22.3h86.5  C736.3,1473.7,741,1475.4,744.7,1478.2z"/>
<ellipse xmlns="http://www.w3.org/2000/svg" transform="matrix(0.9996 -2.937410e-02 2.937410e-02 0.9996 -44.8828 21.5068)" class="st10" cx="709.6" cy="1538.4" rx="15" ry="15"/>
<path xmlns="http://www.w3.org/2000/svg" class="st1" d="M742.4,1538.4c0,8.3-6.7,15-15,15c-8.3,0-15-6.7-15-15c0-8.3,6.7-15,15-15  C735.7,1523.4,742.4,1530.1,742.4,1538.4z"/>
<g xmlns="http://www.w3.org/2000/svg">
	<path class="st6" d="M1067.8,1797.2H631.3c-19.4,0-35.1-15.7-35.1-35.1v-92.3c0-19.4,15.7-35.1,35.1-35.1h436.6   c19.4,0,35.1,15.7,35.1,35.1v92.3C1103,1781.5,1087.2,1797.2,1067.8,1797.2z"/>
	<g>
		<path class="st2" d="M753.6,1693v45.7c0,12.3-10,22.3-22.3,22.3h-86.5c-4.5,0-8.8-1.4-12.3-3.7c-6-4-10-10.8-10-18.6V1693    c0-12.3,10-22.3,22.3-22.3h86.5c5,0,9.7,1.7,13.4,4.5C750.1,1679.3,753.6,1685.8,753.6,1693z"/>
		<path class="st1" d="M929.9,1734.5H786.4c-10.3,0-18.6-8.3-18.6-18.6l0,0c0-10.3,8.3-18.6,18.6-18.6h143.5    c10.3,0,18.6,8.3,18.6,18.6l0,0C948.5,1726.2,940.2,1734.5,929.9,1734.5z"/>
		<path class="st7" d="M1058.1,1734.5h-71.9c-10.3,0-18.6-8.3-18.6-18.6l0,0c0-10.3,8.3-18.6,18.6-18.6h71.9    c10.3,0,18.6,8.3,18.6,18.6l0,0C1076.7,1726.2,1068.3,1734.5,1058.1,1734.5z"/>
	</g>
	<path class="st3" d="M744.7,1675.2l-112.2,82.2c-6-4-10-10.8-10-18.6V1693c0-12.3,10-22.3,22.3-22.3h86.5   C736.3,1670.7,741,1672.4,744.7,1675.2z"/>
	<path class="st8" d="M724.6,1735.4c0,8.3-6.7,15-15,15c-8.3,0-15-6.7-15-15c0-8.3,6.7-15,15-15   C717.9,1720.4,724.6,1727.1,724.6,1735.4z"/>
	<path class="st1" d="M742.4,1735.4c0,8.3-6.7,15-15,15c-8.3,0-15-6.7-15-15c0-8.3,6.7-15,15-15   C735.7,1720.4,742.4,1727.1,742.4,1735.4z"/>
</g>
</svg>